<?xml version="1.0" encoding="UTF-8" standalone="no"?>
<!DOCTYPE svg PUBLIC "-//W3C//DTD SVG 1.1//EN"
 "http://www.w3.org/Graphics/SVG/1.1/DTD/svg11.dtd">
<!-- Generated by graphviz version 2.43.0 (0)
 -->
<!-- Title: snakemake_dag Pages: 1 -->
<svg width="274pt" height="404pt"
 viewBox="0.00 0.00 273.50 404.00" xmlns="http://www.w3.org/2000/svg" xmlns:xlink="http://www.w3.org/1999/xlink">
<g id="graph0" class="graph" transform="scale(1 1) rotate(0) translate(4 400)">
<title>snakemake_dag</title>
<polygon fill="white" stroke="transparent" points="-4,4 -4,-400 269.5,-400 269.5,4 -4,4"/>
<!-- 1 -->
<g id="node1" class="node">
<title>1</title>
<path fill="none" stroke="#56c1d8" stroke-width="2" d="M204.5,-36C204.5,-36 98.5,-36 98.5,-36 92.5,-36 86.5,-30 86.5,-24 86.5,-24 86.5,-12 86.5,-12 86.5,-6 92.5,0 98.5,0 98.5,0 204.5,0 204.5,0 210.5,0 216.5,-6 216.5,-12 216.5,-12 216.5,-24 216.5,-24 216.5,-30 210.5,-36 204.5,-36"/>
<text text-anchor="middle" x="151.5" y="-15.5" font-family="sans" font-size="10.00">generate_deseq_object</text>
</g>
<!-- 2 -->
<g id="node2" class="node">
<title>2</title>
<path fill="none" stroke="#d85656" stroke-width="2" d="M166.5,-108C166.5,-108 136.5,-108 136.5,-108 130.5,-108 124.5,-102 124.5,-96 124.5,-96 124.5,-84 124.5,-84 124.5,-78 130.5,-72 136.5,-72 136.5,-72 166.5,-72 166.5,-72 172.5,-72 178.5,-78 178.5,-84 178.5,-84 178.5,-96 178.5,-96 178.5,-102 172.5,-108 166.5,-108"/>
<text text-anchor="middle" x="151.5" y="-87.5" font-family="sans" font-size="10.00">salmon</text>
</g>
<!-- 2&#45;&gt;1 -->
<g id="edge1" class="edge">
<title>2&#45;&gt;1</title>
<path fill="none" stroke="grey" stroke-width="2" d="M151.5,-71.7C151.5,-63.98 151.5,-54.71 151.5,-46.11"/>
<polygon fill="grey" stroke="grey" stroke-width="2" points="155,-46.1 151.5,-36.1 148,-46.1 155,-46.1"/>
</g>
<!-- 3 -->
<g id="node3" class="node">
<title>3</title>
<path fill="none" stroke="#56d88a" stroke-width="2" d="M140.5,-180C140.5,-180 72.5,-180 72.5,-180 66.5,-180 60.5,-174 60.5,-168 60.5,-168 60.5,-156 60.5,-156 60.5,-150 66.5,-144 72.5,-144 72.5,-144 140.5,-144 140.5,-144 146.5,-144 152.5,-150 152.5,-156 152.5,-156 152.5,-168 152.5,-168 152.5,-174 146.5,-180 140.5,-180"/>
<text text-anchor="middle" x="106.5" y="-159.5" font-family="sans" font-size="10.00">generate_index</text>
</g>
<!-- 3&#45;&gt;2 -->
<g id="edge3" class="edge">
<title>3&#45;&gt;2</title>
<path fill="none" stroke="grey" stroke-width="2" d="M117.62,-143.7C122.86,-135.56 129.2,-125.69 134.98,-116.7"/>
<polygon fill="grey" stroke="grey" stroke-width="2" points="138.04,-118.41 140.5,-108.1 132.15,-114.62 138.04,-118.41"/>
</g>
<!-- 4 -->
<g id="node4" class="node">
<title>4</title>
<path fill="none" stroke="#d88d56" stroke-width="2" d="M225.5,-180C225.5,-180 195.5,-180 195.5,-180 189.5,-180 183.5,-174 183.5,-168 183.5,-168 183.5,-156 183.5,-156 183.5,-150 189.5,-144 195.5,-144 195.5,-144 225.5,-144 225.5,-144 231.5,-144 237.5,-150 237.5,-156 237.5,-156 237.5,-168 237.5,-168 237.5,-174 231.5,-180 225.5,-180"/>
<text text-anchor="middle" x="210.5" y="-159.5" font-family="sans" font-size="10.00">trim</text>
</g>
<!-- 4&#45;&gt;2 -->
<g id="edge2" class="edge">
<title>4&#45;&gt;2</title>
<path fill="none" stroke="grey" stroke-width="2" d="M195.92,-143.7C188.84,-135.3 180.22,-125.07 172.45,-115.86"/>
<polygon fill="grey" stroke="grey" stroke-width="2" points="175.04,-113.49 165.92,-108.1 169.69,-118.01 175.04,-113.49"/>
</g>
<!-- 5 -->
<g id="node5" class="node">
<title>5</title>
<path fill="none" stroke="#d8bc56" stroke-width="2" d="M151,-252C151,-252 12,-252 12,-252 6,-252 0,-246 0,-240 0,-240 0,-228 0,-228 0,-222 6,-216 12,-216 12,-216 151,-216 151,-216 157,-216 163,-222 163,-228 163,-228 163,-240 163,-240 163,-246 157,-252 151,-252"/>
<text text-anchor="middle" x="81.5" y="-231.5" font-family="sans" font-size="10.00">generate_decoy_trancriptome</text>
</g>
<!-- 5&#45;&gt;3 -->
<g id="edge4" class="edge">
<title>5&#45;&gt;3</title>
<path fill="none" stroke="grey" stroke-width="2" d="M87.68,-215.7C90.5,-207.81 93.89,-198.3 97.02,-189.55"/>
<polygon fill="grey" stroke="grey" stroke-width="2" points="100.32,-190.7 100.39,-180.1 93.73,-188.34 100.32,-190.7"/>
</g>
<!-- 6 -->
<g id="node6" class="node">
<title>6</title>
<path fill="none" stroke="#568ad8" stroke-width="2" d="M253.5,-252C253.5,-252 193.5,-252 193.5,-252 187.5,-252 181.5,-246 181.5,-240 181.5,-240 181.5,-228 181.5,-228 181.5,-222 187.5,-216 193.5,-216 193.5,-216 253.5,-216 253.5,-216 259.5,-216 265.5,-222 265.5,-228 265.5,-228 265.5,-240 265.5,-240 265.5,-246 259.5,-252 253.5,-252"/>
<text text-anchor="middle" x="223.5" y="-231.5" font-family="sans" font-size="10.00">check_pairing</text>
</g>
<!-- 6&#45;&gt;4 -->
<g id="edge5" class="edge">
<title>6&#45;&gt;4</title>
<path fill="none" stroke="grey" stroke-width="2" d="M220.29,-215.7C218.85,-207.98 217.13,-198.71 215.54,-190.11"/>
<polygon fill="grey" stroke="grey" stroke-width="2" points="218.94,-189.3 213.68,-180.1 212.06,-190.58 218.94,-189.3"/>
</g>
<!-- 7 -->
<g id="node7" class="node">
<title>7</title>
<path fill="none" stroke="#bed856" stroke-width="2" d="M96.5,-324C96.5,-324 66.5,-324 66.5,-324 60.5,-324 54.5,-318 54.5,-312 54.5,-312 54.5,-300 54.5,-300 54.5,-294 60.5,-288 66.5,-288 66.5,-288 96.5,-288 96.5,-288 102.5,-288 108.5,-294 108.5,-300 108.5,-300 108.5,-312 108.5,-312 108.5,-318 102.5,-324 96.5,-324"/>
<text text-anchor="middle" x="81.5" y="-303.5" font-family="sans" font-size="10.00">gffread</text>
</g>
<!-- 7&#45;&gt;5 -->
<g id="edge6" class="edge">
<title>7&#45;&gt;5</title>
<path fill="none" stroke="grey" stroke-width="2" d="M81.5,-287.7C81.5,-279.98 81.5,-270.71 81.5,-262.11"/>
<polygon fill="grey" stroke="grey" stroke-width="2" points="85,-262.1 81.5,-252.1 78,-262.1 85,-262.1"/>
</g>
<!-- 8 -->
<g id="node8" class="node">
<title>8</title>
<path fill="none" stroke="#56d8c1" stroke-width="2" d="M245,-324C245,-324 202,-324 202,-324 196,-324 190,-318 190,-312 190,-312 190,-300 190,-300 190,-294 196,-288 202,-288 202,-288 245,-288 245,-288 251,-288 257,-294 257,-300 257,-300 257,-312 257,-312 257,-318 251,-324 245,-324"/>
<text text-anchor="middle" x="223.5" y="-303.5" font-family="sans" font-size="10.00">join_reads</text>
</g>
<!-- 8&#45;&gt;6 -->
<g id="edge7" class="edge">
<title>8&#45;&gt;6</title>
<path fill="none" stroke="grey" stroke-width="2" d="M223.5,-287.7C223.5,-279.98 223.5,-270.71 223.5,-262.11"/>
<polygon fill="grey" stroke="grey" stroke-width="2" points="227,-262.1 223.5,-252.1 220,-262.1 227,-262.1"/>
</g>
<!-- 9 -->
<g id="node9" class="node">
<title>9</title>
<path fill="none" stroke="#59d856" stroke-width="2" d="M96.5,-396C96.5,-396 66.5,-396 66.5,-396 60.5,-396 54.5,-390 54.5,-384 54.5,-384 54.5,-372 54.5,-372 54.5,-366 60.5,-360 66.5,-360 66.5,-360 96.5,-360 96.5,-360 102.5,-360 108.5,-366 108.5,-372 108.5,-372 108.5,-384 108.5,-384 108.5,-390 102.5,-396 96.5,-396"/>
<text text-anchor="middle" x="81.5" y="-375.5" font-family="sans" font-size="10.00">faidx</text>
</g>
<!-- 9&#45;&gt;7 -->
<g id="edge8" class="edge">
<title>9&#45;&gt;7</title>
<path fill="none" stroke="grey" stroke-width="2" d="M81.5,-359.7C81.5,-351.98 81.5,-342.71 81.5,-334.11"/>
<polygon fill="grey" stroke="grey" stroke-width="2" points="85,-334.1 81.5,-324.1 78,-334.1 85,-334.1"/>
</g>
</g>
</svg>
