<?xml version="1.0" encoding="UTF-8" standalone="no"?>
<!DOCTYPE svg PUBLIC "-//W3C//DTD SVG 1.1//EN"
 "http://www.w3.org/Graphics/SVG/1.1/DTD/svg11.dtd">
<!-- Generated by graphviz version 2.43.0 (0)
 -->
<!-- Title: snakemake_dag Pages: 1 -->
<svg width="243pt" height="548pt"
 viewBox="0.00 0.00 243.00 548.00" xmlns="http://www.w3.org/2000/svg" xmlns:xlink="http://www.w3.org/1999/xlink">
<g id="graph0" class="graph" transform="scale(1 1) rotate(0) translate(4 544)">
<title>snakemake_dag</title>
<polygon fill="white" stroke="transparent" points="-4,4 -4,-544 239,-544 239,4 -4,4"/>
<!-- 1 -->
<g id="node1" class="node">
<title>1</title>
<path fill="none" stroke="#8fd856" stroke-width="2" d="M152,-36C152,-36 111,-36 111,-36 105,-36 99,-30 99,-24 99,-24 99,-12 99,-12 99,-6 105,0 111,0 111,0 152,0 152,0 158,0 164,-6 164,-12 164,-12 164,-24 164,-24 164,-30 158,-36 152,-36"/>
<text text-anchor="middle" x="131.5" y="-15.5" font-family="sans" font-size="10.00">annot_res</text>
</g>
<!-- 2 -->
<g id="node2" class="node">
<title>2</title>
<path fill="none" stroke="#d87d56" stroke-width="2" d="M98,-108C98,-108 65,-108 65,-108 59,-108 53,-102 53,-96 53,-96 53,-84 53,-84 53,-78 59,-72 65,-72 65,-72 98,-72 98,-72 104,-72 110,-78 110,-84 110,-84 110,-96 110,-96 110,-102 104,-108 98,-108"/>
<text text-anchor="middle" x="81.5" y="-87.5" font-family="sans" font-size="10.00">de_wald</text>
</g>
<!-- 2&#45;&gt;1 -->
<g id="edge1" class="edge">
<title>2&#45;&gt;1</title>
<path fill="none" stroke="grey" stroke-width="2" d="M93.86,-71.7C99.73,-63.47 106.87,-53.48 113.34,-44.42"/>
<polygon fill="grey" stroke="grey" stroke-width="2" points="116.32,-46.28 119.28,-36.1 110.62,-42.21 116.32,-46.28"/>
</g>
<!-- 3 -->
<g id="node3" class="node">
<title>3</title>
<path fill="none" stroke="#56d0d8" stroke-width="2" d="M223,-108C223,-108 140,-108 140,-108 134,-108 128,-102 128,-96 128,-96 128,-84 128,-84 128,-78 134,-72 140,-72 140,-72 223,-72 223,-72 229,-72 235,-78 235,-84 235,-84 235,-96 235,-96 235,-102 229,-108 223,-108"/>
<text text-anchor="middle" x="181.5" y="-87.5" font-family="sans" font-size="10.00">parse_annotations</text>
</g>
<!-- 3&#45;&gt;1 -->
<g id="edge2" class="edge">
<title>3&#45;&gt;1</title>
<path fill="none" stroke="grey" stroke-width="2" d="M169.14,-71.7C163.27,-63.47 156.13,-53.48 149.66,-44.42"/>
<polygon fill="grey" stroke="grey" stroke-width="2" points="152.38,-42.21 143.72,-36.1 146.68,-46.28 152.38,-42.21"/>
</g>
<!-- 4 -->
<g id="node4" class="node">
<title>4</title>
<path fill="none" stroke="#56d86b" stroke-width="2" d="M134.5,-180C134.5,-180 28.5,-180 28.5,-180 22.5,-180 16.5,-174 16.5,-168 16.5,-168 16.5,-156 16.5,-156 16.5,-150 22.5,-144 28.5,-144 28.5,-144 134.5,-144 134.5,-144 140.5,-144 146.5,-150 146.5,-156 146.5,-156 146.5,-168 146.5,-168 146.5,-174 140.5,-180 134.5,-180"/>
<text text-anchor="middle" x="81.5" y="-159.5" font-family="sans" font-size="10.00">generate_deseq_object</text>
</g>
<!-- 4&#45;&gt;2 -->
<g id="edge3" class="edge">
<title>4&#45;&gt;2</title>
<path fill="none" stroke="grey" stroke-width="2" d="M81.5,-143.7C81.5,-135.98 81.5,-126.71 81.5,-118.11"/>
<polygon fill="grey" stroke="grey" stroke-width="2" points="85,-118.1 81.5,-108.1 78,-118.1 85,-118.1"/>
</g>
<!-- 5 -->
<g id="node5" class="node">
<title>5</title>
<path fill="none" stroke="#56a9d8" stroke-width="2" d="M96.5,-252C96.5,-252 66.5,-252 66.5,-252 60.5,-252 54.5,-246 54.5,-240 54.5,-240 54.5,-228 54.5,-228 54.5,-222 60.5,-216 66.5,-216 66.5,-216 96.5,-216 96.5,-216 102.5,-216 108.5,-222 108.5,-228 108.5,-228 108.5,-240 108.5,-240 108.5,-246 102.5,-252 96.5,-252"/>
<text text-anchor="middle" x="81.5" y="-231.5" font-family="sans" font-size="10.00">salmon</text>
</g>
<!-- 5&#45;&gt;4 -->
<g id="edge4" class="edge">
<title>5&#45;&gt;4</title>
<path fill="none" stroke="grey" stroke-width="2" d="M81.5,-215.7C81.5,-207.98 81.5,-198.71 81.5,-190.11"/>
<polygon fill="grey" stroke="grey" stroke-width="2" points="85,-190.1 81.5,-180.1 78,-190.1 85,-190.1"/>
</g>
<!-- 6 -->
<g id="node6" class="node">
<title>6</title>
<path fill="none" stroke="#d8cb56" stroke-width="2" d="M115.5,-324C115.5,-324 47.5,-324 47.5,-324 41.5,-324 35.5,-318 35.5,-312 35.5,-312 35.5,-300 35.5,-300 35.5,-294 41.5,-288 47.5,-288 47.5,-288 115.5,-288 115.5,-288 121.5,-288 127.5,-294 127.5,-300 127.5,-300 127.5,-312 127.5,-312 127.5,-318 121.5,-324 115.5,-324"/>
<text text-anchor="middle" x="81.5" y="-303.5" font-family="sans" font-size="10.00">generate_index</text>
</g>
<!-- 6&#45;&gt;5 -->
<g id="edge5" class="edge">
<title>6&#45;&gt;5</title>
<path fill="none" stroke="grey" stroke-width="2" d="M81.5,-287.7C81.5,-279.98 81.5,-270.71 81.5,-262.11"/>
<polygon fill="grey" stroke="grey" stroke-width="2" points="85,-262.1 81.5,-252.1 78,-262.1 85,-262.1"/>
</g>
<!-- 7 -->
<g id="node7" class="node">
<title>7</title>
<path fill="none" stroke="#567bd8" stroke-width="2" d="M151,-396C151,-396 12,-396 12,-396 6,-396 0,-390 0,-384 0,-384 0,-372 0,-372 0,-366 6,-360 12,-360 12,-360 151,-360 151,-360 157,-360 163,-366 163,-372 163,-372 163,-384 163,-384 163,-390 157,-396 151,-396"/>
<text text-anchor="middle" x="81.5" y="-375.5" font-family="sans" font-size="10.00">generate_decoy_trancriptome</text>
</g>
<!-- 7&#45;&gt;6 -->
<g id="edge6" class="edge">
<title>7&#45;&gt;6</title>
<path fill="none" stroke="grey" stroke-width="2" d="M81.5,-359.7C81.5,-351.98 81.5,-342.71 81.5,-334.11"/>
<polygon fill="grey" stroke="grey" stroke-width="2" points="85,-334.1 81.5,-324.1 78,-334.1 85,-334.1"/>
</g>
<!-- 8 -->
<g id="node8" class="node">
<title>8</title>
<path fill="none" stroke="#d85656" stroke-width="2" d="M96.5,-468C96.5,-468 66.5,-468 66.5,-468 60.5,-468 54.5,-462 54.5,-456 54.5,-456 54.5,-444 54.5,-444 54.5,-438 60.5,-432 66.5,-432 66.5,-432 96.5,-432 96.5,-432 102.5,-432 108.5,-438 108.5,-444 108.5,-444 108.5,-456 108.5,-456 108.5,-462 102.5,-468 96.5,-468"/>
<text text-anchor="middle" x="81.5" y="-447.5" font-family="sans" font-size="10.00">gffread</text>
</g>
<!-- 8&#45;&gt;7 -->
<g id="edge7" class="edge">
<title>8&#45;&gt;7</title>
<path fill="none" stroke="grey" stroke-width="2" d="M81.5,-431.7C81.5,-423.98 81.5,-414.71 81.5,-406.11"/>
<polygon fill="grey" stroke="grey" stroke-width="2" points="85,-406.1 81.5,-396.1 78,-406.1 85,-406.1"/>
</g>
<!-- 9 -->
<g id="node9" class="node">
<title>9</title>
<path fill="none" stroke="#56d892" stroke-width="2" d="M96.5,-540C96.5,-540 66.5,-540 66.5,-540 60.5,-540 54.5,-534 54.5,-528 54.5,-528 54.5,-516 54.5,-516 54.5,-510 60.5,-504 66.5,-504 66.5,-504 96.5,-504 96.5,-504 102.5,-504 108.5,-510 108.5,-516 108.5,-516 108.5,-528 108.5,-528 108.5,-534 102.5,-540 96.5,-540"/>
<text text-anchor="middle" x="81.5" y="-519.5" font-family="sans" font-size="10.00">faidx</text>
</g>
<!-- 9&#45;&gt;8 -->
<g id="edge8" class="edge">
<title>9&#45;&gt;8</title>
<path fill="none" stroke="grey" stroke-width="2" d="M81.5,-503.7C81.5,-495.98 81.5,-486.71 81.5,-478.11"/>
<polygon fill="grey" stroke="grey" stroke-width="2" points="85,-478.1 81.5,-468.1 78,-478.1 85,-478.1"/>
</g>
</g>
</svg>
