<?xml version="1.0" encoding="UTF-8" standalone="no"?>
<!DOCTYPE svg PUBLIC "-//W3C//DTD SVG 1.1//EN"
 "http://www.w3.org/Graphics/SVG/1.1/DTD/svg11.dtd">
<!-- Generated by graphviz version 2.43.0 (0)
 -->
<!-- Title: snakemake_dag Pages: 1 -->
<svg width="393pt" height="476pt"
 viewBox="0.00 0.00 393.00 476.00" xmlns="http://www.w3.org/2000/svg" xmlns:xlink="http://www.w3.org/1999/xlink">
<g id="graph0" class="graph" transform="scale(1 1) rotate(0) translate(4 472)">
<title>snakemake_dag</title>
<polygon fill="white" stroke="transparent" points="-4,4 -4,-472 389,-472 389,4 -4,4"/>
<!-- 1 -->
<g id="node1" class="node">
<title>1</title>
<path fill="none" stroke="#70d856" stroke-width="2" d="M81.5,-36C81.5,-36 48.5,-36 48.5,-36 42.5,-36 36.5,-30 36.5,-24 36.5,-24 36.5,-12 36.5,-12 36.5,-6 42.5,0 48.5,0 48.5,0 81.5,0 81.5,0 87.5,0 93.5,-6 93.5,-12 93.5,-12 93.5,-24 93.5,-24 93.5,-30 87.5,-36 81.5,-36"/>
<text text-anchor="middle" x="65" y="-15.5" font-family="sans" font-size="10.00">de_wald</text>
</g>
<!-- 2 -->
<g id="node2" class="node">
<title>2</title>
<path fill="none" stroke="#56c1d8" stroke-width="2" d="M118,-108C118,-108 12,-108 12,-108 6,-108 0,-102 0,-96 0,-96 0,-84 0,-84 0,-78 6,-72 12,-72 12,-72 118,-72 118,-72 124,-72 130,-78 130,-84 130,-84 130,-96 130,-96 130,-102 124,-108 118,-108"/>
<text text-anchor="middle" x="65" y="-87.5" font-family="sans" font-size="10.00">generate_deseq_object</text>
</g>
<!-- 2&#45;&gt;1 -->
<g id="edge1" class="edge">
<title>2&#45;&gt;1</title>
<path fill="none" stroke="grey" stroke-width="2" d="M65,-71.7C65,-63.98 65,-54.71 65,-46.11"/>
<polygon fill="grey" stroke="grey" stroke-width="2" points="68.5,-46.1 65,-36.1 61.5,-46.1 68.5,-46.1"/>
</g>
<!-- 3 -->
<g id="node3" class="node">
<title>3</title>
<path fill="none" stroke="#56d8c1" stroke-width="2" d="M159,-180C159,-180 129,-180 129,-180 123,-180 117,-174 117,-168 117,-168 117,-156 117,-156 117,-150 123,-144 129,-144 129,-144 159,-144 159,-144 165,-144 171,-150 171,-156 171,-156 171,-168 171,-168 171,-174 165,-180 159,-180"/>
<text text-anchor="middle" x="144" y="-159.5" font-family="sans" font-size="10.00">salmon</text>
</g>
<!-- 3&#45;&gt;2 -->
<g id="edge2" class="edge">
<title>3&#45;&gt;2</title>
<path fill="none" stroke="grey" stroke-width="2" d="M124.47,-143.7C114.62,-134.97 102.51,-124.24 91.8,-114.75"/>
<polygon fill="grey" stroke="grey" stroke-width="2" points="94.11,-112.12 84.3,-108.1 89.47,-117.36 94.11,-112.12"/>
</g>
<!-- 4 -->
<g id="node4" class="node">
<title>4</title>
<path fill="none" stroke="#56a2d8" stroke-width="2" d="M123,-396C123,-396 93,-396 93,-396 87,-396 81,-390 81,-384 81,-384 81,-372 81,-372 81,-366 87,-360 93,-360 93,-360 123,-360 123,-360 129,-360 135,-366 135,-372 135,-372 135,-384 135,-384 135,-390 129,-396 123,-396"/>
<text text-anchor="middle" x="108" y="-375.5" font-family="sans" font-size="10.00">gffread</text>
</g>
<!-- 4&#45;&gt;2 -->
<g id="edge3" class="edge">
<title>4&#45;&gt;2</title>
<path fill="none" stroke="grey" stroke-width="2" d="M80.76,-363.01C66.38,-354 50.07,-340.83 42,-324 9.08,-255.34 36.65,-162.4 53.82,-117.48"/>
<polygon fill="grey" stroke="grey" stroke-width="2" points="57.09,-118.73 57.5,-108.14 50.57,-116.16 57.09,-118.73"/>
</g>
<!-- 8 -->
<g id="node8" class="node">
<title>8</title>
<path fill="none" stroke="#d8a456" stroke-width="2" d="M152.5,-324C152.5,-324 63.5,-324 63.5,-324 57.5,-324 51.5,-318 51.5,-312 51.5,-312 51.5,-300 51.5,-300 51.5,-294 57.5,-288 63.5,-288 63.5,-288 152.5,-288 152.5,-288 158.5,-288 164.5,-294 164.5,-300 164.5,-300 164.5,-312 164.5,-312 164.5,-318 158.5,-324 152.5,-324"/>
<text text-anchor="middle" x="108" y="-303.5" font-family="sans" font-size="10.00">generate_gentrome</text>
</g>
<!-- 4&#45;&gt;8 -->
<g id="edge10" class="edge">
<title>4&#45;&gt;8</title>
<path fill="none" stroke="grey" stroke-width="2" d="M108,-359.7C108,-351.98 108,-342.71 108,-334.11"/>
<polygon fill="grey" stroke="grey" stroke-width="2" points="111.5,-334.1 108,-324.1 104.5,-334.1 111.5,-334.1"/>
</g>
<!-- 5 -->
<g id="node5" class="node">
<title>5</title>
<path fill="none" stroke="#56d88a" stroke-width="2" d="M178,-252C178,-252 110,-252 110,-252 104,-252 98,-246 98,-240 98,-240 98,-228 98,-228 98,-222 104,-216 110,-216 110,-216 178,-216 178,-216 184,-216 190,-222 190,-228 190,-228 190,-240 190,-240 190,-246 184,-252 178,-252"/>
<text text-anchor="middle" x="144" y="-231.5" font-family="sans" font-size="10.00">generate_index</text>
</g>
<!-- 5&#45;&gt;3 -->
<g id="edge5" class="edge">
<title>5&#45;&gt;3</title>
<path fill="none" stroke="grey" stroke-width="2" d="M144,-215.7C144,-207.98 144,-198.71 144,-190.11"/>
<polygon fill="grey" stroke="grey" stroke-width="2" points="147.5,-190.1 144,-180.1 140.5,-190.1 147.5,-190.1"/>
</g>
<!-- 6 -->
<g id="node6" class="node">
<title>6</title>
<path fill="none" stroke="#59d856" stroke-width="2" d="M322,-252C322,-252 292,-252 292,-252 286,-252 280,-246 280,-240 280,-240 280,-228 280,-228 280,-222 286,-216 292,-216 292,-216 322,-216 322,-216 328,-216 334,-222 334,-228 334,-228 334,-240 334,-240 334,-246 328,-252 322,-252"/>
<text text-anchor="middle" x="307" y="-231.5" font-family="sans" font-size="10.00">trim</text>
</g>
<!-- 6&#45;&gt;3 -->
<g id="edge4" class="edge">
<title>6&#45;&gt;3</title>
<path fill="none" stroke="grey" stroke-width="2" d="M279.72,-221.28C252.49,-209.59 210.47,-191.55 180.41,-178.64"/>
<polygon fill="grey" stroke="grey" stroke-width="2" points="181.67,-175.37 171.1,-174.64 178.91,-181.8 181.67,-175.37"/>
</g>
<!-- 7 -->
<g id="node7" class="node">
<title>7</title>
<path fill="none" stroke="#56d8a2" stroke-width="2" d="M185,-468C185,-468 155,-468 155,-468 149,-468 143,-462 143,-456 143,-456 143,-444 143,-444 143,-438 149,-432 155,-432 155,-432 185,-432 185,-432 191,-432 197,-438 197,-444 197,-444 197,-456 197,-456 197,-462 191,-468 185,-468"/>
<text text-anchor="middle" x="170" y="-447.5" font-family="sans" font-size="10.00">faidx</text>
</g>
<!-- 7&#45;&gt;4 -->
<g id="edge6" class="edge">
<title>7&#45;&gt;4</title>
<path fill="none" stroke="grey" stroke-width="2" d="M154.67,-431.7C147.24,-423.3 138.18,-413.07 130.02,-403.86"/>
<polygon fill="grey" stroke="grey" stroke-width="2" points="132.4,-401.27 123.15,-396.1 127.16,-405.91 132.4,-401.27"/>
</g>
<!-- 9 -->
<g id="node9" class="node">
<title>9</title>
<path fill="none" stroke="#d86e56" stroke-width="2" d="M271,-324C271,-324 195,-324 195,-324 189,-324 183,-318 183,-312 183,-312 183,-300 183,-300 183,-294 189,-288 195,-288 195,-288 271,-288 271,-288 277,-288 283,-294 283,-300 283,-300 283,-312 283,-312 283,-318 277,-324 271,-324"/>
<text text-anchor="middle" x="233" y="-303.5" font-family="sans" font-size="10.00">generate_decoys</text>
</g>
<!-- 7&#45;&gt;9 -->
<g id="edge11" class="edge">
<title>7&#45;&gt;9</title>
<path fill="none" stroke="grey" stroke-width="2" d="M177.6,-431.87C188.43,-407.46 208.41,-362.43 221.18,-333.64"/>
<polygon fill="grey" stroke="grey" stroke-width="2" points="224.52,-334.75 225.37,-324.19 218.12,-331.91 224.52,-334.75"/>
</g>
<!-- 8&#45;&gt;5 -->
<g id="edge7" class="edge">
<title>8&#45;&gt;5</title>
<path fill="none" stroke="grey" stroke-width="2" d="M116.9,-287.7C121,-279.73 125.95,-270.1 130.49,-261.26"/>
<polygon fill="grey" stroke="grey" stroke-width="2" points="133.74,-262.6 135.2,-252.1 127.52,-259.4 133.74,-262.6"/>
</g>
<!-- 9&#45;&gt;5 -->
<g id="edge8" class="edge">
<title>9&#45;&gt;5</title>
<path fill="none" stroke="grey" stroke-width="2" d="M211,-287.7C199.79,-278.88 186,-268.03 173.85,-258.47"/>
<polygon fill="grey" stroke="grey" stroke-width="2" points="175.77,-255.54 165.75,-252.1 171.44,-261.04 175.77,-255.54"/>
</g>
<!-- 10 -->
<g id="node10" class="node">
<title>10</title>
<path fill="none" stroke="#56d873" stroke-width="2" d="M373,-324C373,-324 313,-324 313,-324 307,-324 301,-318 301,-312 301,-312 301,-300 301,-300 301,-294 307,-288 313,-288 313,-288 373,-288 373,-288 379,-288 385,-294 385,-300 385,-300 385,-312 385,-312 385,-318 379,-324 373,-324"/>
<text text-anchor="middle" x="343" y="-303.5" font-family="sans" font-size="10.00">check_pairing</text>
</g>
<!-- 10&#45;&gt;6 -->
<g id="edge9" class="edge">
<title>10&#45;&gt;6</title>
<path fill="none" stroke="grey" stroke-width="2" d="M334.1,-287.7C330,-279.73 325.05,-270.1 320.51,-261.26"/>
<polygon fill="grey" stroke="grey" stroke-width="2" points="323.48,-259.4 315.8,-252.1 317.26,-262.6 323.48,-259.4"/>
</g>
<!-- 11 -->
<g id="node11" class="node">
<title>11</title>
<path fill="none" stroke="#88d856" stroke-width="2" d="M364.5,-396C364.5,-396 321.5,-396 321.5,-396 315.5,-396 309.5,-390 309.5,-384 309.5,-384 309.5,-372 309.5,-372 309.5,-366 315.5,-360 321.5,-360 321.5,-360 364.5,-360 364.5,-360 370.5,-360 376.5,-366 376.5,-372 376.5,-372 376.5,-384 376.5,-384 376.5,-390 370.5,-396 364.5,-396"/>
<text text-anchor="middle" x="343" y="-375.5" font-family="sans" font-size="10.00">join_reads</text>
</g>
<!-- 11&#45;&gt;10 -->
<g id="edge12" class="edge">
<title>11&#45;&gt;10</title>
<path fill="none" stroke="grey" stroke-width="2" d="M343,-359.7C343,-351.98 343,-342.71 343,-334.11"/>
<polygon fill="grey" stroke="grey" stroke-width="2" points="346.5,-334.1 343,-324.1 339.5,-334.1 346.5,-334.1"/>
</g>
</g>
</svg>
