<?xml version="1.0" encoding="UTF-8" standalone="no"?>
<!DOCTYPE svg PUBLIC "-//W3C//DTD SVG 1.1//EN"
 "http://www.w3.org/Graphics/SVG/1.1/DTD/svg11.dtd">
<!-- Generated by graphviz version 2.43.0 (0)
 -->
<!-- Title: snakemake_dag Pages: 1 -->
<svg width="357pt" height="548pt"
 viewBox="0.00 0.00 357.18 548.00" xmlns="http://www.w3.org/2000/svg" xmlns:xlink="http://www.w3.org/1999/xlink">
<g id="graph0" class="graph" transform="scale(1 1) rotate(0) translate(4 544)">
<title>snakemake_dag</title>
<polygon fill="white" stroke="transparent" points="-4,4 -4,-544 353.18,-544 353.18,4 -4,4"/>
<!-- 1 -->
<g id="node1" class="node">
<title>1</title>
<path fill="none" stroke="#a7d856" stroke-width="2" d="M169.68,-36C169.68,-36 128.68,-36 128.68,-36 122.68,-36 116.68,-30 116.68,-24 116.68,-24 116.68,-12 116.68,-12 116.68,-6 122.68,0 128.68,0 128.68,0 169.68,0 169.68,0 175.68,0 181.68,-6 181.68,-12 181.68,-12 181.68,-24 181.68,-24 181.68,-30 175.68,-36 169.68,-36"/>
<text text-anchor="middle" x="149.18" y="-15.5" font-family="sans" font-size="10.00">annot_res</text>
</g>
<!-- 2 -->
<g id="node2" class="node">
<title>2</title>
<path fill="none" stroke="#bed856" stroke-width="2" d="M115.68,-108C115.68,-108 82.68,-108 82.68,-108 76.68,-108 70.68,-102 70.68,-96 70.68,-96 70.68,-84 70.68,-84 70.68,-78 76.68,-72 82.68,-72 82.68,-72 115.68,-72 115.68,-72 121.68,-72 127.68,-78 127.68,-84 127.68,-84 127.68,-96 127.68,-96 127.68,-102 121.68,-108 115.68,-108"/>
<text text-anchor="middle" x="99.18" y="-87.5" font-family="sans" font-size="10.00">de_wald</text>
</g>
<!-- 2&#45;&gt;1 -->
<g id="edge1" class="edge">
<title>2&#45;&gt;1</title>
<path fill="none" stroke="grey" stroke-width="2" d="M111.54,-71.7C117.42,-63.47 124.55,-53.48 131.03,-44.42"/>
<polygon fill="grey" stroke="grey" stroke-width="2" points="134,-46.28 136.97,-36.1 128.31,-42.21 134,-46.28"/>
</g>
<!-- 3 -->
<g id="node3" class="node">
<title>3</title>
<path fill="none" stroke="#56d873" stroke-width="2" d="M240.68,-108C240.68,-108 157.68,-108 157.68,-108 151.68,-108 145.68,-102 145.68,-96 145.68,-96 145.68,-84 145.68,-84 145.68,-78 151.68,-72 157.68,-72 157.68,-72 240.68,-72 240.68,-72 246.68,-72 252.68,-78 252.68,-84 252.68,-84 252.68,-96 252.68,-96 252.68,-102 246.68,-108 240.68,-108"/>
<text text-anchor="middle" x="199.18" y="-87.5" font-family="sans" font-size="10.00">parse_annotations</text>
</g>
<!-- 3&#45;&gt;1 -->
<g id="edge2" class="edge">
<title>3&#45;&gt;1</title>
<path fill="none" stroke="grey" stroke-width="2" d="M186.83,-71.7C180.95,-63.47 173.82,-53.48 167.34,-44.42"/>
<polygon fill="grey" stroke="grey" stroke-width="2" points="170.06,-42.21 161.4,-36.1 164.37,-46.28 170.06,-42.21"/>
</g>
<!-- 4 -->
<g id="node4" class="node">
<title>4</title>
<path fill="none" stroke="#56d8d8" stroke-width="2" d="M152.18,-180C152.18,-180 46.18,-180 46.18,-180 40.18,-180 34.18,-174 34.18,-168 34.18,-168 34.18,-156 34.18,-156 34.18,-150 40.18,-144 46.18,-144 46.18,-144 152.18,-144 152.18,-144 158.18,-144 164.18,-150 164.18,-156 164.18,-156 164.18,-168 164.18,-168 164.18,-174 158.18,-180 152.18,-180"/>
<text text-anchor="middle" x="99.18" y="-159.5" font-family="sans" font-size="10.00">generate_deseq_object</text>
</g>
<!-- 4&#45;&gt;2 -->
<g id="edge3" class="edge">
<title>4&#45;&gt;2</title>
<path fill="none" stroke="grey" stroke-width="2" d="M99.18,-143.7C99.18,-135.98 99.18,-126.71 99.18,-118.11"/>
<polygon fill="grey" stroke="grey" stroke-width="2" points="102.68,-118.1 99.18,-108.1 95.68,-118.1 102.68,-118.1"/>
</g>
<!-- 5 -->
<g id="node5" class="node">
<title>5</title>
<path fill="none" stroke="#d85656" stroke-width="2" d="M114.18,-252C114.18,-252 84.18,-252 84.18,-252 78.18,-252 72.18,-246 72.18,-240 72.18,-240 72.18,-228 72.18,-228 72.18,-222 78.18,-216 84.18,-216 84.18,-216 114.18,-216 114.18,-216 120.18,-216 126.18,-222 126.18,-228 126.18,-228 126.18,-240 126.18,-240 126.18,-246 120.18,-252 114.18,-252"/>
<text text-anchor="middle" x="99.18" y="-231.5" font-family="sans" font-size="10.00">salmon</text>
</g>
<!-- 5&#45;&gt;4 -->
<g id="edge4" class="edge">
<title>5&#45;&gt;4</title>
<path fill="none" stroke="grey" stroke-width="2" d="M99.18,-215.7C99.18,-207.98 99.18,-198.71 99.18,-190.11"/>
<polygon fill="grey" stroke="grey" stroke-width="2" points="102.68,-190.1 99.18,-180.1 95.68,-190.1 102.68,-190.1"/>
</g>
<!-- 6 -->
<g id="node6" class="node">
<title>6</title>
<path fill="none" stroke="#56a2d8" stroke-width="2" d="M55.18,-468C55.18,-468 25.18,-468 25.18,-468 19.18,-468 13.18,-462 13.18,-456 13.18,-456 13.18,-444 13.18,-444 13.18,-438 19.18,-432 25.18,-432 25.18,-432 55.18,-432 55.18,-432 61.18,-432 67.18,-438 67.18,-444 67.18,-444 67.18,-456 67.18,-456 67.18,-462 61.18,-468 55.18,-468"/>
<text text-anchor="middle" x="40.18" y="-447.5" font-family="sans" font-size="10.00">gffread</text>
</g>
<!-- 6&#45;&gt;4 -->
<g id="edge5" class="edge">
<title>6&#45;&gt;4</title>
<path fill="none" stroke="grey" stroke-width="2" d="M24.15,-431.85C16.17,-422.12 7.36,-409.27 3.18,-396 -1.62,-380.74 0.05,-375.69 3.18,-360 16.78,-292.01 30.2,-276.99 63.18,-216 68.21,-206.7 74.46,-197.01 80.34,-188.49"/>
<polygon fill="grey" stroke="grey" stroke-width="2" points="83.35,-190.29 86.26,-180.11 77.64,-186.26 83.35,-190.29"/>
</g>
<!-- 13 -->
<g id="node13" class="node">
<title>13</title>
<path fill="none" stroke="#d6d856" stroke-width="2" d="M113.68,-396C113.68,-396 24.68,-396 24.68,-396 18.68,-396 12.68,-390 12.68,-384 12.68,-384 12.68,-372 12.68,-372 12.68,-366 18.68,-360 24.68,-360 24.68,-360 113.68,-360 113.68,-360 119.68,-360 125.68,-366 125.68,-372 125.68,-372 125.68,-384 125.68,-384 125.68,-390 119.68,-396 113.68,-396"/>
<text text-anchor="middle" x="69.18" y="-375.5" font-family="sans" font-size="10.00">generate_gentrome</text>
</g>
<!-- 6&#45;&gt;13 -->
<g id="edge18" class="edge">
<title>6&#45;&gt;13</title>
<path fill="none" stroke="grey" stroke-width="2" d="M47.35,-431.7C50.62,-423.81 54.56,-414.3 58.19,-405.55"/>
<polygon fill="grey" stroke="grey" stroke-width="2" points="61.5,-406.68 62.1,-396.1 55.04,-404 61.5,-406.68"/>
</g>
<!-- 7 -->
<g id="node7" class="node">
<title>7</title>
<path fill="none" stroke="#88d856" stroke-width="2" d="M279.68,-252C279.68,-252 200.68,-252 200.68,-252 194.68,-252 188.68,-246 188.68,-240 188.68,-240 188.68,-228 188.68,-228 188.68,-222 194.68,-216 200.68,-216 200.68,-216 279.68,-216 279.68,-216 285.68,-216 291.68,-222 291.68,-228 291.68,-228 291.68,-240 291.68,-240 291.68,-246 285.68,-252 279.68,-252"/>
<text text-anchor="middle" x="240.18" y="-231.5" font-family="sans" font-size="10.00">star_second_pass</text>
</g>
<!-- 7&#45;&gt;4 -->
<g id="edge6" class="edge">
<title>7&#45;&gt;4</title>
<path fill="none" stroke="grey" stroke-width="2" d="M205.69,-215.88C186.74,-206.47 163.05,-194.71 142.83,-184.67"/>
<polygon fill="grey" stroke="grey" stroke-width="2" points="144.32,-181.5 133.81,-180.19 141.21,-187.77 144.32,-181.5"/>
</g>
<!-- 8 -->
<g id="node8" class="node">
<title>8</title>
<path fill="none" stroke="#d86e56" stroke-width="2" d="M126.18,-324C126.18,-324 58.18,-324 58.18,-324 52.18,-324 46.18,-318 46.18,-312 46.18,-312 46.18,-300 46.18,-300 46.18,-294 52.18,-288 58.18,-288 58.18,-288 126.18,-288 126.18,-288 132.18,-288 138.18,-294 138.18,-300 138.18,-300 138.18,-312 138.18,-312 138.18,-318 132.18,-324 126.18,-324"/>
<text text-anchor="middle" x="92.18" y="-303.5" font-family="sans" font-size="10.00">generate_index</text>
</g>
<!-- 8&#45;&gt;5 -->
<g id="edge7" class="edge">
<title>8&#45;&gt;5</title>
<path fill="none" stroke="grey" stroke-width="2" d="M93.92,-287.7C94.69,-279.98 95.61,-270.71 96.47,-262.11"/>
<polygon fill="grey" stroke="grey" stroke-width="2" points="99.96,-262.4 97.47,-252.1 93,-261.71 99.96,-262.4"/>
</g>
<!-- 9 -->
<g id="node9" class="node">
<title>9</title>
<path fill="none" stroke="#568ad8" stroke-width="2" d="M242.18,-396C242.18,-396 212.18,-396 212.18,-396 206.18,-396 200.18,-390 200.18,-384 200.18,-384 200.18,-372 200.18,-372 200.18,-366 206.18,-360 212.18,-360 212.18,-360 242.18,-360 242.18,-360 248.18,-360 254.18,-366 254.18,-372 254.18,-372 254.18,-384 254.18,-384 254.18,-390 248.18,-396 242.18,-396"/>
<text text-anchor="middle" x="227.18" y="-375.5" font-family="sans" font-size="10.00">trim</text>
</g>
<!-- 9&#45;&gt;5 -->
<g id="edge8" class="edge">
<title>9&#45;&gt;5</title>
<path fill="none" stroke="grey" stroke-width="2" d="M211.87,-359.92C195.78,-341.99 169.73,-312.99 147.18,-288 138.82,-278.73 129.63,-268.57 121.54,-259.64"/>
<polygon fill="grey" stroke="grey" stroke-width="2" points="124.07,-257.23 114.77,-252.17 118.89,-261.93 124.07,-257.23"/>
</g>
<!-- 9&#45;&gt;7 -->
<g id="edge12" class="edge">
<title>9&#45;&gt;7</title>
<path fill="none" stroke="grey" stroke-width="2" d="M224.4,-359.83C221.94,-341.82 219.31,-312.76 223.18,-288 224.54,-279.31 227.08,-270.1 229.8,-261.84"/>
<polygon fill="grey" stroke="grey" stroke-width="2" points="233.12,-262.93 233.12,-252.33 226.52,-260.62 233.12,-262.93"/>
</g>
<!-- 12 -->
<g id="node12" class="node">
<title>12</title>
<path fill="none" stroke="#56d88a" stroke-width="2" d="M307.68,-324C307.68,-324 244.68,-324 244.68,-324 238.68,-324 232.68,-318 232.68,-312 232.68,-312 232.68,-300 232.68,-300 232.68,-294 238.68,-288 244.68,-288 244.68,-288 307.68,-288 307.68,-288 313.68,-288 319.68,-294 319.68,-300 319.68,-300 319.68,-312 319.68,-312 319.68,-318 313.68,-324 307.68,-324"/>
<text text-anchor="middle" x="276.18" y="-303.5" font-family="sans" font-size="10.00">star_first_pass</text>
</g>
<!-- 9&#45;&gt;12 -->
<g id="edge17" class="edge">
<title>9&#45;&gt;12</title>
<path fill="none" stroke="grey" stroke-width="2" d="M239.3,-359.7C245.05,-351.47 252.05,-341.48 258.39,-332.42"/>
<polygon fill="grey" stroke="grey" stroke-width="2" points="261.34,-334.3 264.21,-324.1 255.61,-330.29 261.34,-334.3"/>
</g>
<!-- 10 -->
<g id="node10" class="node">
<title>10</title>
<path fill="none" stroke="#70d856" stroke-width="2" d="M103.18,-540C103.18,-540 73.18,-540 73.18,-540 67.18,-540 61.18,-534 61.18,-528 61.18,-528 61.18,-516 61.18,-516 61.18,-510 67.18,-504 73.18,-504 73.18,-504 103.18,-504 103.18,-504 109.18,-504 115.18,-510 115.18,-516 115.18,-516 115.18,-528 115.18,-528 115.18,-534 109.18,-540 103.18,-540"/>
<text text-anchor="middle" x="88.18" y="-519.5" font-family="sans" font-size="10.00">faidx</text>
</g>
<!-- 10&#45;&gt;6 -->
<g id="edge9" class="edge">
<title>10&#45;&gt;6</title>
<path fill="none" stroke="grey" stroke-width="2" d="M76.32,-503.7C70.68,-495.47 63.83,-485.48 57.62,-476.42"/>
<polygon fill="grey" stroke="grey" stroke-width="2" points="60.46,-474.37 51.91,-468.1 54.68,-478.33 60.46,-474.37"/>
</g>
<!-- 14 -->
<g id="node14" class="node">
<title>14</title>
<path fill="none" stroke="#d8a456" stroke-width="2" d="M173.18,-468C173.18,-468 97.18,-468 97.18,-468 91.18,-468 85.18,-462 85.18,-456 85.18,-456 85.18,-444 85.18,-444 85.18,-438 91.18,-432 97.18,-432 97.18,-432 173.18,-432 173.18,-432 179.18,-432 185.18,-438 185.18,-444 185.18,-444 185.18,-456 185.18,-456 185.18,-462 179.18,-468 173.18,-468"/>
<text text-anchor="middle" x="135.18" y="-447.5" font-family="sans" font-size="10.00">generate_decoys</text>
</g>
<!-- 10&#45;&gt;14 -->
<g id="edge19" class="edge">
<title>10&#45;&gt;14</title>
<path fill="none" stroke="grey" stroke-width="2" d="M99.8,-503.7C105.32,-495.47 112.03,-485.48 118.12,-476.42"/>
<polygon fill="grey" stroke="grey" stroke-width="2" points="121.03,-478.36 123.7,-468.1 115.22,-474.46 121.03,-478.36"/>
</g>
<!-- 11 -->
<g id="node11" class="node">
<title>11</title>
<path fill="none" stroke="#56d8a2" stroke-width="2" d="M337.18,-396C337.18,-396 293.18,-396 293.18,-396 287.18,-396 281.18,-390 281.18,-384 281.18,-384 281.18,-372 281.18,-372 281.18,-366 287.18,-360 293.18,-360 293.18,-360 337.18,-360 337.18,-360 343.18,-360 349.18,-366 349.18,-372 349.18,-372 349.18,-384 349.18,-384 349.18,-390 343.18,-396 337.18,-396"/>
<text text-anchor="middle" x="315.18" y="-375.5" font-family="sans" font-size="10.00">star_index</text>
</g>
<!-- 11&#45;&gt;7 -->
<g id="edge10" class="edge">
<title>11&#45;&gt;7</title>
<path fill="none" stroke="grey" stroke-width="2" d="M324.07,-359.76C332.44,-340.92 341.94,-310.44 329.18,-288 321.82,-275.04 309.9,-264.92 297.14,-257.16"/>
<polygon fill="grey" stroke="grey" stroke-width="2" points="298.65,-253.99 288.22,-252.15 295.23,-260.1 298.65,-253.99"/>
</g>
<!-- 11&#45;&gt;12 -->
<g id="edge16" class="edge">
<title>11&#45;&gt;12</title>
<path fill="none" stroke="grey" stroke-width="2" d="M305.54,-359.7C301.06,-351.64 295.63,-341.89 290.66,-332.98"/>
<polygon fill="grey" stroke="grey" stroke-width="2" points="293.64,-331.14 285.71,-324.1 287.52,-334.54 293.64,-331.14"/>
</g>
<!-- 12&#45;&gt;7 -->
<g id="edge11" class="edge">
<title>12&#45;&gt;7</title>
<path fill="none" stroke="grey" stroke-width="2" d="M267.29,-287.7C263.19,-279.73 258.24,-270.1 253.69,-261.26"/>
<polygon fill="grey" stroke="grey" stroke-width="2" points="256.67,-259.4 248.98,-252.1 250.44,-262.6 256.67,-259.4"/>
</g>
<!-- 13&#45;&gt;8 -->
<g id="edge14" class="edge">
<title>13&#45;&gt;8</title>
<path fill="none" stroke="grey" stroke-width="2" d="M74.87,-359.7C77.43,-351.9 80.52,-342.51 83.37,-333.83"/>
<polygon fill="grey" stroke="grey" stroke-width="2" points="86.77,-334.7 86.56,-324.1 80.12,-332.51 86.77,-334.7"/>
</g>
<!-- 14&#45;&gt;8 -->
<g id="edge13" class="edge">
<title>14&#45;&gt;8</title>
<path fill="none" stroke="grey" stroke-width="2" d="M138.22,-431.7C140.7,-413.33 142.6,-383.74 134.18,-360 130.6,-349.88 124.21,-340.22 117.48,-331.99"/>
<polygon fill="grey" stroke="grey" stroke-width="2" points="119.94,-329.49 110.73,-324.27 114.67,-334.1 119.94,-329.49"/>
</g>
<!-- 15 -->
<g id="node15" class="node">
<title>15</title>
<path fill="none" stroke="#5673d8" stroke-width="2" d="M275.18,-468C275.18,-468 215.18,-468 215.18,-468 209.18,-468 203.18,-462 203.18,-456 203.18,-456 203.18,-444 203.18,-444 203.18,-438 209.18,-432 215.18,-432 215.18,-432 275.18,-432 275.18,-432 281.18,-432 287.18,-438 287.18,-444 287.18,-444 287.18,-456 287.18,-456 287.18,-462 281.18,-468 275.18,-468"/>
<text text-anchor="middle" x="245.18" y="-447.5" font-family="sans" font-size="10.00">check_pairing</text>
</g>
<!-- 15&#45;&gt;9 -->
<g id="edge15" class="edge">
<title>15&#45;&gt;9</title>
<path fill="none" stroke="grey" stroke-width="2" d="M240.74,-431.7C238.73,-423.9 236.32,-414.51 234.08,-405.83"/>
<polygon fill="grey" stroke="grey" stroke-width="2" points="237.46,-404.92 231.58,-396.1 230.68,-406.66 237.46,-404.92"/>
</g>
<!-- 16 -->
<g id="node16" class="node">
<title>16</title>
<path fill="none" stroke="#59d856" stroke-width="2" d="M266.68,-540C266.68,-540 223.68,-540 223.68,-540 217.68,-540 211.68,-534 211.68,-528 211.68,-528 211.68,-516 211.68,-516 211.68,-510 217.68,-504 223.68,-504 223.68,-504 266.68,-504 266.68,-504 272.68,-504 278.68,-510 278.68,-516 278.68,-516 278.68,-528 278.68,-528 278.68,-534 272.68,-540 266.68,-540"/>
<text text-anchor="middle" x="245.18" y="-519.5" font-family="sans" font-size="10.00">join_reads</text>
</g>
<!-- 16&#45;&gt;15 -->
<g id="edge20" class="edge">
<title>16&#45;&gt;15</title>
<path fill="none" stroke="grey" stroke-width="2" d="M245.18,-503.7C245.18,-495.98 245.18,-486.71 245.18,-478.11"/>
<polygon fill="grey" stroke="grey" stroke-width="2" points="248.68,-478.1 245.18,-468.1 241.68,-478.1 248.68,-478.1"/>
</g>
</g>
</svg>
