<?xml version="1.0" encoding="UTF-8" standalone="no"?>
<!DOCTYPE svg PUBLIC "-//W3C//DTD SVG 1.1//EN"
 "http://www.w3.org/Graphics/SVG/1.1/DTD/svg11.dtd">
<!-- Generated by graphviz version 2.43.0 (0)
 -->
<!-- Title: snakemake_dag Pages: 1 -->
<svg width="580pt" height="548pt"
 viewBox="0.00 0.00 579.50 548.00" xmlns="http://www.w3.org/2000/svg" xmlns:xlink="http://www.w3.org/1999/xlink">
<g id="graph0" class="graph" transform="scale(1 1) rotate(0) translate(4 544)">
<title>snakemake_dag</title>
<polygon fill="white" stroke="transparent" points="-4,4 -4,-544 575.5,-544 575.5,4 -4,4"/>
<!-- 1 -->
<g id="node1" class="node">
<title>1</title>
<path fill="none" stroke="#56b9d8" stroke-width="2" d="M360,-36C360,-36 319,-36 319,-36 313,-36 307,-30 307,-24 307,-24 307,-12 307,-12 307,-6 313,0 319,0 319,0 360,0 360,0 366,0 372,-6 372,-12 372,-12 372,-24 372,-24 372,-30 366,-36 360,-36"/>
<text text-anchor="middle" x="339.5" y="-15.5" font-family="sans" font-size="10.00">annot_res</text>
</g>
<!-- 2 -->
<g id="node2" class="node">
<title>2</title>
<path fill="none" stroke="#d8d356" stroke-width="2" d="M231.5,-180C231.5,-180 201.5,-180 201.5,-180 195.5,-180 189.5,-174 189.5,-168 189.5,-168 189.5,-156 189.5,-156 189.5,-150 195.5,-144 201.5,-144 201.5,-144 231.5,-144 231.5,-144 237.5,-144 243.5,-150 243.5,-156 243.5,-156 243.5,-168 243.5,-168 243.5,-174 237.5,-180 231.5,-180"/>
<text text-anchor="middle" x="216.5" y="-159.5" font-family="sans" font-size="10.00">multiqc</text>
</g>
<!-- 3 -->
<g id="node3" class="node">
<title>3</title>
<path fill="none" stroke="#afd856" stroke-width="2" d="M387,-180C387,-180 274,-180 274,-180 268,-180 262,-174 262,-168 262,-168 262,-156 262,-156 262,-150 268,-144 274,-144 274,-144 387,-144 387,-144 393,-144 399,-150 399,-156 399,-156 399,-168 399,-168 399,-174 393,-180 387,-180"/>
<text text-anchor="middle" x="330.5" y="-159.5" font-family="sans" font-size="10.00">count_reads_per_feature</text>
</g>
<!-- 4 -->
<g id="node4" class="node">
<title>4</title>
<path fill="none" stroke="#56a2d8" stroke-width="2" d="M306,-108C306,-108 273,-108 273,-108 267,-108 261,-102 261,-96 261,-96 261,-84 261,-84 261,-78 267,-72 273,-72 273,-72 306,-72 306,-72 312,-72 318,-78 318,-84 318,-84 318,-96 318,-96 318,-102 312,-108 306,-108"/>
<text text-anchor="middle" x="289.5" y="-87.5" font-family="sans" font-size="10.00">de_wald</text>
</g>
<!-- 4&#45;&gt;1 -->
<g id="edge2" class="edge">
<title>4&#45;&gt;1</title>
<path fill="none" stroke="grey" stroke-width="2" d="M301.86,-71.7C307.73,-63.47 314.87,-53.48 321.34,-44.42"/>
<polygon fill="grey" stroke="grey" stroke-width="2" points="324.32,-46.28 327.28,-36.1 318.62,-42.21 324.32,-46.28"/>
</g>
<!-- 5 -->
<g id="node5" class="node">
<title>5</title>
<path fill="none" stroke="#56d892" stroke-width="2" d="M431,-108C431,-108 348,-108 348,-108 342,-108 336,-102 336,-96 336,-96 336,-84 336,-84 336,-78 342,-72 348,-72 348,-72 431,-72 431,-72 437,-72 443,-78 443,-84 443,-84 443,-96 443,-96 443,-102 437,-108 431,-108"/>
<text text-anchor="middle" x="389.5" y="-87.5" font-family="sans" font-size="10.00">parse_annotations</text>
</g>
<!-- 5&#45;&gt;1 -->
<g id="edge1" class="edge">
<title>5&#45;&gt;1</title>
<path fill="none" stroke="grey" stroke-width="2" d="M377.14,-71.7C371.27,-63.47 364.13,-53.48 357.66,-44.42"/>
<polygon fill="grey" stroke="grey" stroke-width="2" points="360.38,-42.21 351.72,-36.1 354.68,-46.28 360.38,-42.21"/>
</g>
<!-- 6 -->
<g id="node6" class="node">
<title>6</title>
<path fill="none" stroke="#d88556" stroke-width="2" d="M231.5,-324C231.5,-324 201.5,-324 201.5,-324 195.5,-324 189.5,-318 189.5,-312 189.5,-312 189.5,-300 189.5,-300 189.5,-294 195.5,-288 201.5,-288 201.5,-288 231.5,-288 231.5,-288 237.5,-288 243.5,-294 243.5,-300 243.5,-300 243.5,-312 243.5,-312 243.5,-318 237.5,-324 231.5,-324"/>
<text text-anchor="middle" x="216.5" y="-303.5" font-family="sans" font-size="10.00">fastqc</text>
</g>
<!-- 6&#45;&gt;2 -->
<g id="edge3" class="edge">
<title>6&#45;&gt;2</title>
<path fill="none" stroke="grey" stroke-width="2" d="M216.5,-287.87C216.5,-263.67 216.5,-219.21 216.5,-190.39"/>
<polygon fill="grey" stroke="grey" stroke-width="2" points="220,-190.19 216.5,-180.19 213,-190.19 220,-190.19"/>
</g>
<!-- 7 -->
<g id="node7" class="node">
<title>7</title>
<path fill="none" stroke="#d85656" stroke-width="2" d="M158.5,-252C158.5,-252 128.5,-252 128.5,-252 122.5,-252 116.5,-246 116.5,-240 116.5,-240 116.5,-228 116.5,-228 116.5,-222 122.5,-216 128.5,-216 128.5,-216 158.5,-216 158.5,-216 164.5,-216 170.5,-222 170.5,-228 170.5,-228 170.5,-240 170.5,-240 170.5,-246 164.5,-252 158.5,-252"/>
<text text-anchor="middle" x="143.5" y="-231.5" font-family="sans" font-size="10.00">salmon</text>
</g>
<!-- 7&#45;&gt;2 -->
<g id="edge4" class="edge">
<title>7&#45;&gt;2</title>
<path fill="none" stroke="grey" stroke-width="2" d="M161.54,-215.7C170.56,-207.05 181.62,-196.45 191.44,-187.03"/>
<polygon fill="grey" stroke="grey" stroke-width="2" points="193.87,-189.55 198.66,-180.1 189.02,-184.5 193.87,-189.55"/>
</g>
<!-- 9 -->
<g id="node9" class="node">
<title>9</title>
<path fill="none" stroke="#78d856" stroke-width="2" d="M159,-180C159,-180 12,-180 12,-180 6,-180 0,-174 0,-168 0,-168 0,-156 0,-156 0,-150 6,-144 12,-144 12,-144 159,-144 159,-144 165,-144 171,-150 171,-156 171,-156 171,-168 171,-168 171,-174 165,-180 159,-180"/>
<text text-anchor="middle" x="85.5" y="-159.5" font-family="sans" font-size="10.00">generate_deseq_object_salmon</text>
</g>
<!-- 7&#45;&gt;9 -->
<g id="edge17" class="edge">
<title>7&#45;&gt;9</title>
<path fill="none" stroke="grey" stroke-width="2" d="M129.16,-215.7C122.21,-207.3 113.73,-197.07 106.1,-187.86"/>
<polygon fill="grey" stroke="grey" stroke-width="2" points="108.75,-185.57 99.67,-180.1 103.36,-190.04 108.75,-185.57"/>
</g>
<!-- 8 -->
<g id="node8" class="node">
<title>8</title>
<path fill="none" stroke="#d8bc56" stroke-width="2" d="M395,-252C395,-252 316,-252 316,-252 310,-252 304,-246 304,-240 304,-240 304,-228 304,-228 304,-222 310,-216 316,-216 316,-216 395,-216 395,-216 401,-216 407,-222 407,-228 407,-228 407,-240 407,-240 407,-246 401,-252 395,-252"/>
<text text-anchor="middle" x="355.5" y="-231.5" font-family="sans" font-size="10.00">star_second_pass</text>
</g>
<!-- 8&#45;&gt;2 -->
<g id="edge5" class="edge">
<title>8&#45;&gt;2</title>
<path fill="none" stroke="grey" stroke-width="2" d="M321.5,-215.88C300.63,-205.37 273.94,-191.92 252.68,-181.22"/>
<polygon fill="grey" stroke="grey" stroke-width="2" points="254.15,-178.04 243.64,-176.67 251,-184.29 254.15,-178.04"/>
</g>
<!-- 8&#45;&gt;3 -->
<g id="edge6" class="edge">
<title>8&#45;&gt;3</title>
<path fill="none" stroke="grey" stroke-width="2" d="M349.32,-215.7C346.5,-207.81 343.11,-198.3 339.98,-189.55"/>
<polygon fill="grey" stroke="grey" stroke-width="2" points="343.27,-188.34 336.61,-180.1 336.68,-190.7 343.27,-188.34"/>
</g>
<!-- 10 -->
<g id="node10" class="node">
<title>10</title>
<path fill="none" stroke="#5673d8" stroke-width="2" d="M559.5,-180C559.5,-180 429.5,-180 429.5,-180 423.5,-180 417.5,-174 417.5,-168 417.5,-168 417.5,-156 417.5,-156 417.5,-150 423.5,-144 429.5,-144 429.5,-144 559.5,-144 559.5,-144 565.5,-144 571.5,-150 571.5,-156 571.5,-156 571.5,-168 571.5,-168 571.5,-174 565.5,-180 559.5,-180"/>
<text text-anchor="middle" x="494.5" y="-159.5" font-family="sans" font-size="10.00">generate_deseq_object_star</text>
</g>
<!-- 8&#45;&gt;10 -->
<g id="edge18" class="edge">
<title>8&#45;&gt;10</title>
<path fill="none" stroke="grey" stroke-width="2" d="M389.5,-215.88C408.1,-206.51 431.33,-194.81 451.21,-184.8"/>
<polygon fill="grey" stroke="grey" stroke-width="2" points="453.01,-187.81 460.37,-180.19 449.86,-181.56 453.01,-187.81"/>
</g>
<!-- 9&#45;&gt;4 -->
<g id="edge8" class="edge">
<title>9&#45;&gt;4</title>
<path fill="none" stroke="grey" stroke-width="2" d="M135.14,-143.97C170.84,-131.72 218.28,-115.44 251.1,-104.18"/>
<polygon fill="grey" stroke="grey" stroke-width="2" points="252.46,-107.41 260.79,-100.85 250.19,-100.79 252.46,-107.41"/>
</g>
<!-- 10&#45;&gt;4 -->
<g id="edge7" class="edge">
<title>10&#45;&gt;4</title>
<path fill="none" stroke="grey" stroke-width="2" d="M434,-143.91C404.08,-135 367.36,-123.37 327.42,-108.16"/>
<polygon fill="grey" stroke="grey" stroke-width="2" points="328.62,-104.87 318.03,-104.54 326.1,-111.4 328.62,-104.87"/>
</g>
<!-- 11 -->
<g id="node11" class="node">
<title>11</title>
<path fill="none" stroke="#61d856" stroke-width="2" d="M274,-540C274,-540 231,-540 231,-540 225,-540 219,-534 219,-528 219,-528 219,-516 219,-516 219,-510 225,-504 231,-504 231,-504 274,-504 274,-504 280,-504 286,-510 286,-516 286,-516 286,-528 286,-528 286,-534 280,-540 274,-540"/>
<text text-anchor="middle" x="252.5" y="-519.5" font-family="sans" font-size="10.00">join_reads</text>
</g>
<!-- 11&#45;&gt;6 -->
<g id="edge9" class="edge">
<title>11&#45;&gt;6</title>
<path fill="none" stroke="grey" stroke-width="2" d="M249.61,-503.85C243.37,-466.75 228.58,-378.81 221.06,-334.1"/>
<polygon fill="grey" stroke="grey" stroke-width="2" points="224.51,-333.51 219.4,-324.23 217.61,-334.67 224.51,-333.51"/>
</g>
<!-- 17 -->
<g id="node17" class="node">
<title>17</title>
<path fill="none" stroke="#56d8c9" stroke-width="2" d="M328.5,-468C328.5,-468 268.5,-468 268.5,-468 262.5,-468 256.5,-462 256.5,-456 256.5,-456 256.5,-444 256.5,-444 256.5,-438 262.5,-432 268.5,-432 268.5,-432 328.5,-432 328.5,-432 334.5,-432 340.5,-438 340.5,-444 340.5,-444 340.5,-456 340.5,-456 340.5,-462 334.5,-468 328.5,-468"/>
<text text-anchor="middle" x="298.5" y="-447.5" font-family="sans" font-size="10.00">check_pairing</text>
</g>
<!-- 11&#45;&gt;17 -->
<g id="edge25" class="edge">
<title>11&#45;&gt;17</title>
<path fill="none" stroke="grey" stroke-width="2" d="M263.87,-503.7C269.22,-495.56 275.7,-485.69 281.61,-476.7"/>
<polygon fill="grey" stroke="grey" stroke-width="2" points="284.69,-478.38 287.26,-468.1 278.84,-474.54 284.69,-478.38"/>
</g>
<!-- 12 -->
<g id="node12" class="node">
<title>12</title>
<path fill="none" stroke="#56d87b" stroke-width="2" d="M313.5,-396C313.5,-396 283.5,-396 283.5,-396 277.5,-396 271.5,-390 271.5,-384 271.5,-384 271.5,-372 271.5,-372 271.5,-366 277.5,-360 283.5,-360 283.5,-360 313.5,-360 313.5,-360 319.5,-360 325.5,-366 325.5,-372 325.5,-372 325.5,-384 325.5,-384 325.5,-390 319.5,-396 313.5,-396"/>
<text text-anchor="middle" x="298.5" y="-375.5" font-family="sans" font-size="10.00">trim</text>
</g>
<!-- 12&#45;&gt;6 -->
<g id="edge10" class="edge">
<title>12&#45;&gt;6</title>
<path fill="none" stroke="grey" stroke-width="2" d="M278.23,-359.7C268,-350.97 255.44,-340.24 244.32,-330.75"/>
<polygon fill="grey" stroke="grey" stroke-width="2" points="246.41,-327.94 236.54,-324.1 241.87,-333.26 246.41,-327.94"/>
</g>
<!-- 12&#45;&gt;7 -->
<g id="edge12" class="edge">
<title>12&#45;&gt;7</title>
<path fill="none" stroke="grey" stroke-width="2" d="M293.34,-359.91C286.69,-340.36 273.41,-308.41 252.5,-288 232.21,-268.2 203.08,-254.56 180.04,-246.08"/>
<polygon fill="grey" stroke="grey" stroke-width="2" points="181.17,-242.77 170.58,-242.76 178.85,-249.37 181.17,-242.77"/>
</g>
<!-- 12&#45;&gt;8 -->
<g id="edge15" class="edge">
<title>12&#45;&gt;8</title>
<path fill="none" stroke="grey" stroke-width="2" d="M303.42,-360C308.85,-341.88 318.2,-312.5 328.5,-288 332.22,-279.15 336.8,-269.73 341.13,-261.33"/>
<polygon fill="grey" stroke="grey" stroke-width="2" points="344.29,-262.84 345.84,-252.36 338.09,-259.59 344.29,-262.84"/>
</g>
<!-- 15 -->
<g id="node15" class="node">
<title>15</title>
<path fill="none" stroke="#c6d856" stroke-width="2" d="M413,-324C413,-324 350,-324 350,-324 344,-324 338,-318 338,-312 338,-312 338,-300 338,-300 338,-294 344,-288 350,-288 350,-288 413,-288 413,-288 419,-288 425,-294 425,-300 425,-300 425,-312 425,-312 425,-318 419,-324 413,-324"/>
<text text-anchor="middle" x="381.5" y="-303.5" font-family="sans" font-size="10.00">star_first_pass</text>
</g>
<!-- 12&#45;&gt;15 -->
<g id="edge23" class="edge">
<title>12&#45;&gt;15</title>
<path fill="none" stroke="grey" stroke-width="2" d="M319.02,-359.7C329.37,-350.97 342.09,-340.24 353.34,-330.75"/>
<polygon fill="grey" stroke="grey" stroke-width="2" points="355.83,-333.23 361.22,-324.1 351.32,-327.88 355.83,-333.23"/>
</g>
<!-- 13 -->
<g id="node13" class="node">
<title>13</title>
<path fill="none" stroke="#97d856" stroke-width="2" d="M159.5,-324C159.5,-324 91.5,-324 91.5,-324 85.5,-324 79.5,-318 79.5,-312 79.5,-312 79.5,-300 79.5,-300 79.5,-294 85.5,-288 91.5,-288 91.5,-288 159.5,-288 159.5,-288 165.5,-288 171.5,-294 171.5,-300 171.5,-300 171.5,-312 171.5,-312 171.5,-318 165.5,-324 159.5,-324"/>
<text text-anchor="middle" x="125.5" y="-303.5" font-family="sans" font-size="10.00">generate_index</text>
</g>
<!-- 13&#45;&gt;7 -->
<g id="edge11" class="edge">
<title>13&#45;&gt;7</title>
<path fill="none" stroke="grey" stroke-width="2" d="M129.95,-287.7C131.95,-279.9 134.37,-270.51 136.6,-261.83"/>
<polygon fill="grey" stroke="grey" stroke-width="2" points="140,-262.66 139.1,-252.1 133.22,-260.92 140,-262.66"/>
</g>
<!-- 14 -->
<g id="node14" class="node">
<title>14</title>
<path fill="none" stroke="#56d863" stroke-width="2" d="M431.5,-396C431.5,-396 387.5,-396 387.5,-396 381.5,-396 375.5,-390 375.5,-384 375.5,-384 375.5,-372 375.5,-372 375.5,-366 381.5,-360 387.5,-360 387.5,-360 431.5,-360 431.5,-360 437.5,-360 443.5,-366 443.5,-372 443.5,-372 443.5,-384 443.5,-384 443.5,-390 437.5,-396 431.5,-396"/>
<text text-anchor="middle" x="409.5" y="-375.5" font-family="sans" font-size="10.00">star_index</text>
</g>
<!-- 14&#45;&gt;8 -->
<g id="edge13" class="edge">
<title>14&#45;&gt;8</title>
<path fill="none" stroke="grey" stroke-width="2" d="M421.66,-359.78C433.14,-341.22 446.89,-311.22 434.5,-288 427.81,-275.45 416.68,-265.35 404.86,-257.47"/>
<polygon fill="grey" stroke="grey" stroke-width="2" points="406.53,-254.39 396.18,-252.12 402.86,-260.34 406.53,-254.39"/>
</g>
<!-- 14&#45;&gt;15 -->
<g id="edge22" class="edge">
<title>14&#45;&gt;15</title>
<path fill="none" stroke="grey" stroke-width="2" d="M402.58,-359.7C399.43,-351.81 395.62,-342.3 392.12,-333.55"/>
<polygon fill="grey" stroke="grey" stroke-width="2" points="395.31,-332.09 388.34,-324.1 388.81,-334.69 395.31,-332.09"/>
</g>
<!-- 15&#45;&gt;8 -->
<g id="edge14" class="edge">
<title>15&#45;&gt;8</title>
<path fill="none" stroke="grey" stroke-width="2" d="M375.07,-287.7C372.14,-279.81 368.61,-270.3 365.36,-261.55"/>
<polygon fill="grey" stroke="grey" stroke-width="2" points="368.62,-260.26 361.85,-252.1 362.05,-262.7 368.62,-260.26"/>
</g>
<!-- 16 -->
<g id="node16" class="node">
<title>16</title>
<path fill="none" stroke="#56d0d8" stroke-width="2" d="M70.5,-468C70.5,-468 40.5,-468 40.5,-468 34.5,-468 28.5,-462 28.5,-456 28.5,-456 28.5,-444 28.5,-444 28.5,-438 34.5,-432 40.5,-432 40.5,-432 70.5,-432 70.5,-432 76.5,-432 82.5,-438 82.5,-444 82.5,-444 82.5,-456 82.5,-456 82.5,-462 76.5,-468 70.5,-468"/>
<text text-anchor="middle" x="55.5" y="-447.5" font-family="sans" font-size="10.00">gffread</text>
</g>
<!-- 16&#45;&gt;9 -->
<g id="edge16" class="edge">
<title>16&#45;&gt;9</title>
<path fill="none" stroke="grey" stroke-width="2" d="M39.89,-431.77C32.13,-422.03 23.55,-409.18 19.5,-396 14.8,-380.71 16.93,-375.79 19.5,-360 29.77,-297.03 57.35,-227.04 73.42,-189.78"/>
<polygon fill="grey" stroke="grey" stroke-width="2" points="76.83,-190.74 77.63,-180.18 70.41,-187.93 76.83,-190.74"/>
</g>
<!-- 18 -->
<g id="node18" class="node">
<title>18</title>
<path fill="none" stroke="#d8a456" stroke-width="2" d="M130,-396C130,-396 41,-396 41,-396 35,-396 29,-390 29,-384 29,-384 29,-372 29,-372 29,-366 35,-360 41,-360 41,-360 130,-360 130,-360 136,-360 142,-366 142,-372 142,-372 142,-384 142,-384 142,-390 136,-396 130,-396"/>
<text text-anchor="middle" x="85.5" y="-375.5" font-family="sans" font-size="10.00">generate_gentrome</text>
</g>
<!-- 16&#45;&gt;18 -->
<g id="edge26" class="edge">
<title>16&#45;&gt;18</title>
<path fill="none" stroke="grey" stroke-width="2" d="M62.92,-431.7C66.29,-423.81 70.37,-414.3 74.12,-405.55"/>
<polygon fill="grey" stroke="grey" stroke-width="2" points="77.45,-406.67 78.17,-396.1 71.01,-403.92 77.45,-406.67"/>
</g>
<!-- 17&#45;&gt;12 -->
<g id="edge19" class="edge">
<title>17&#45;&gt;12</title>
<path fill="none" stroke="grey" stroke-width="2" d="M298.5,-431.7C298.5,-423.98 298.5,-414.71 298.5,-406.11"/>
<polygon fill="grey" stroke="grey" stroke-width="2" points="302,-406.1 298.5,-396.1 295,-406.1 302,-406.1"/>
</g>
<!-- 18&#45;&gt;13 -->
<g id="edge20" class="edge">
<title>18&#45;&gt;13</title>
<path fill="none" stroke="grey" stroke-width="2" d="M95.39,-359.7C99.99,-351.64 105.56,-341.89 110.65,-332.98"/>
<polygon fill="grey" stroke="grey" stroke-width="2" points="113.8,-334.52 115.73,-324.1 107.73,-331.05 113.8,-334.52"/>
</g>
<!-- 19 -->
<g id="node19" class="node">
<title>19</title>
<path fill="none" stroke="#56d8a9" stroke-width="2" d="M188.5,-468C188.5,-468 112.5,-468 112.5,-468 106.5,-468 100.5,-462 100.5,-456 100.5,-456 100.5,-444 100.5,-444 100.5,-438 106.5,-432 112.5,-432 112.5,-432 188.5,-432 188.5,-432 194.5,-432 200.5,-438 200.5,-444 200.5,-444 200.5,-456 200.5,-456 200.5,-462 194.5,-468 188.5,-468"/>
<text text-anchor="middle" x="150.5" y="-447.5" font-family="sans" font-size="10.00">generate_decoys</text>
</g>
<!-- 19&#45;&gt;13 -->
<g id="edge21" class="edge">
<title>19&#45;&gt;13</title>
<path fill="none" stroke="grey" stroke-width="2" d="M152.71,-431.69C154.52,-413.58 155.97,-384.43 150.5,-360 148.49,-351.01 144.77,-341.75 140.8,-333.53"/>
<polygon fill="grey" stroke="grey" stroke-width="2" points="143.82,-331.73 136.13,-324.44 137.59,-334.94 143.82,-331.73"/>
</g>
<!-- 20 -->
<g id="node20" class="node">
<title>20</title>
<path fill="none" stroke="#d86e56" stroke-width="2" d="M141.5,-540C141.5,-540 111.5,-540 111.5,-540 105.5,-540 99.5,-534 99.5,-528 99.5,-528 99.5,-516 99.5,-516 99.5,-510 105.5,-504 111.5,-504 111.5,-504 141.5,-504 141.5,-504 147.5,-504 153.5,-510 153.5,-516 153.5,-516 153.5,-528 153.5,-528 153.5,-534 147.5,-540 141.5,-540"/>
<text text-anchor="middle" x="126.5" y="-519.5" font-family="sans" font-size="10.00">faidx</text>
</g>
<!-- 20&#45;&gt;16 -->
<g id="edge24" class="edge">
<title>20&#45;&gt;16</title>
<path fill="none" stroke="grey" stroke-width="2" d="M108.95,-503.7C100.27,-495.14 89.64,-484.66 80.15,-475.3"/>
<polygon fill="grey" stroke="grey" stroke-width="2" points="82.43,-472.63 72.85,-468.1 77.51,-477.62 82.43,-472.63"/>
</g>
<!-- 20&#45;&gt;19 -->
<g id="edge27" class="edge">
<title>20&#45;&gt;19</title>
<path fill="none" stroke="grey" stroke-width="2" d="M132.43,-503.7C135.11,-495.9 138.33,-486.51 141.3,-477.83"/>
<polygon fill="grey" stroke="grey" stroke-width="2" points="144.7,-478.7 144.64,-468.1 138.08,-476.43 144.7,-478.7"/>
</g>
</g>
</svg>
