<?xml version="1.0" encoding="UTF-8" standalone="no"?>
<!DOCTYPE svg PUBLIC "-//W3C//DTD SVG 1.1//EN"
 "http://www.w3.org/Graphics/SVG/1.1/DTD/svg11.dtd">
<!-- Generated by graphviz version 2.43.0 (0)
 -->
<!-- Title: snakemake_dag Pages: 1 -->
<svg width="360pt" height="548pt"
 viewBox="0.00 0.00 360.11 548.00" xmlns="http://www.w3.org/2000/svg" xmlns:xlink="http://www.w3.org/1999/xlink">
<g id="graph0" class="graph" transform="scale(1 1) rotate(0) translate(4 544)">
<title>snakemake_dag</title>
<polygon fill="white" stroke="transparent" points="-4,4 -4,-544 356.11,-544 356.11,4 -4,4"/>
<!-- 1 -->
<g id="node1" class="node">
<title>1</title>
<path fill="none" stroke="#c6d856" stroke-width="2" d="M253.61,-36C253.61,-36 212.61,-36 212.61,-36 206.61,-36 200.61,-30 200.61,-24 200.61,-24 200.61,-12 200.61,-12 200.61,-6 206.61,0 212.61,0 212.61,0 253.61,0 253.61,0 259.61,0 265.61,-6 265.61,-12 265.61,-12 265.61,-24 265.61,-24 265.61,-30 259.61,-36 253.61,-36"/>
<text text-anchor="middle" x="233.11" y="-15.5" font-family="sans" font-size="10.00">annot_res</text>
</g>
<!-- 2 -->
<g id="node2" class="node">
<title>2</title>
<path fill="none" stroke="#d8bc56" stroke-width="2" d="M199.61,-108C199.61,-108 166.61,-108 166.61,-108 160.61,-108 154.61,-102 154.61,-96 154.61,-96 154.61,-84 154.61,-84 154.61,-78 160.61,-72 166.61,-72 166.61,-72 199.61,-72 199.61,-72 205.61,-72 211.61,-78 211.61,-84 211.61,-84 211.61,-96 211.61,-96 211.61,-102 205.61,-108 199.61,-108"/>
<text text-anchor="middle" x="183.11" y="-87.5" font-family="sans" font-size="10.00">de_wald</text>
</g>
<!-- 2&#45;&gt;1 -->
<g id="edge2" class="edge">
<title>2&#45;&gt;1</title>
<path fill="none" stroke="grey" stroke-width="2" d="M195.47,-71.7C201.35,-63.47 208.48,-53.48 214.96,-44.42"/>
<polygon fill="grey" stroke="grey" stroke-width="2" points="217.93,-46.28 220.9,-36.1 212.24,-42.21 217.93,-46.28"/>
</g>
<!-- 3 -->
<g id="node3" class="node">
<title>3</title>
<path fill="none" stroke="#afd856" stroke-width="2" d="M324.61,-108C324.61,-108 241.61,-108 241.61,-108 235.61,-108 229.61,-102 229.61,-96 229.61,-96 229.61,-84 229.61,-84 229.61,-78 235.61,-72 241.61,-72 241.61,-72 324.61,-72 324.61,-72 330.61,-72 336.61,-78 336.61,-84 336.61,-84 336.61,-96 336.61,-96 336.61,-102 330.61,-108 324.61,-108"/>
<text text-anchor="middle" x="283.11" y="-87.5" font-family="sans" font-size="10.00">parse_annotations</text>
</g>
<!-- 3&#45;&gt;1 -->
<g id="edge1" class="edge">
<title>3&#45;&gt;1</title>
<path fill="none" stroke="grey" stroke-width="2" d="M270.75,-71.7C264.88,-63.47 257.74,-53.48 251.27,-44.42"/>
<polygon fill="grey" stroke="grey" stroke-width="2" points="253.99,-42.21 245.33,-36.1 248.3,-46.28 253.99,-42.21"/>
</g>
<!-- 4 -->
<g id="node4" class="node">
<title>4</title>
<path fill="none" stroke="#97d856" stroke-width="2" d="M166.61,-180C166.61,-180 19.61,-180 19.61,-180 13.61,-180 7.61,-174 7.61,-168 7.61,-168 7.61,-156 7.61,-156 7.61,-150 13.61,-144 19.61,-144 19.61,-144 166.61,-144 166.61,-144 172.61,-144 178.61,-150 178.61,-156 178.61,-156 178.61,-168 178.61,-168 178.61,-174 172.61,-180 166.61,-180"/>
<text text-anchor="middle" x="93.11" y="-159.5" font-family="sans" font-size="10.00">generate_deseq_object_salmon</text>
</g>
<!-- 4&#45;&gt;2 -->
<g id="edge3" class="edge">
<title>4&#45;&gt;2</title>
<path fill="none" stroke="grey" stroke-width="2" d="M115.36,-143.7C126.7,-134.88 140.64,-124.03 152.93,-114.47"/>
<polygon fill="grey" stroke="grey" stroke-width="2" points="155.38,-117.01 161.12,-108.1 151.08,-111.48 155.38,-117.01"/>
</g>
<!-- 5 -->
<g id="node5" class="node">
<title>5</title>
<path fill="none" stroke="#d86e56" stroke-width="2" d="M340.11,-180C340.11,-180 210.11,-180 210.11,-180 204.11,-180 198.11,-174 198.11,-168 198.11,-168 198.11,-156 198.11,-156 198.11,-150 204.11,-144 210.11,-144 210.11,-144 340.11,-144 340.11,-144 346.11,-144 352.11,-150 352.11,-156 352.11,-156 352.11,-168 352.11,-168 352.11,-174 346.11,-180 340.11,-180"/>
<text text-anchor="middle" x="275.11" y="-159.5" font-family="sans" font-size="10.00">generate_deseq_object_star</text>
</g>
<!-- 5&#45;&gt;2 -->
<g id="edge4" class="edge">
<title>5&#45;&gt;2</title>
<path fill="none" stroke="grey" stroke-width="2" d="M252.37,-143.7C240.67,-134.8 226.25,-123.82 213.6,-114.2"/>
<polygon fill="grey" stroke="grey" stroke-width="2" points="215.67,-111.37 205.59,-108.1 211.43,-116.94 215.67,-111.37"/>
</g>
<!-- 6 -->
<g id="node6" class="node">
<title>6</title>
<path fill="none" stroke="#56b9d8" stroke-width="2" d="M108.11,-252C108.11,-252 78.11,-252 78.11,-252 72.11,-252 66.11,-246 66.11,-240 66.11,-240 66.11,-228 66.11,-228 66.11,-222 72.11,-216 78.11,-216 78.11,-216 108.11,-216 108.11,-216 114.11,-216 120.11,-222 120.11,-228 120.11,-228 120.11,-240 120.11,-240 120.11,-246 114.11,-252 108.11,-252"/>
<text text-anchor="middle" x="93.11" y="-231.5" font-family="sans" font-size="10.00">salmon</text>
</g>
<!-- 6&#45;&gt;4 -->
<g id="edge6" class="edge">
<title>6&#45;&gt;4</title>
<path fill="none" stroke="grey" stroke-width="2" d="M93.11,-215.7C93.11,-207.98 93.11,-198.71 93.11,-190.11"/>
<polygon fill="grey" stroke="grey" stroke-width="2" points="96.61,-190.1 93.11,-180.1 89.61,-190.1 96.61,-190.1"/>
</g>
<!-- 7 -->
<g id="node7" class="node">
<title>7</title>
<path fill="none" stroke="#d8a456" stroke-width="2" d="M55.11,-468C55.11,-468 25.11,-468 25.11,-468 19.11,-468 13.11,-462 13.11,-456 13.11,-456 13.11,-444 13.11,-444 13.11,-438 19.11,-432 25.11,-432 25.11,-432 55.11,-432 55.11,-432 61.11,-432 67.11,-438 67.11,-444 67.11,-444 67.11,-456 67.11,-456 67.11,-462 61.11,-468 55.11,-468"/>
<text text-anchor="middle" x="40.11" y="-447.5" font-family="sans" font-size="10.00">gffread</text>
</g>
<!-- 7&#45;&gt;4 -->
<g id="edge5" class="edge">
<title>7&#45;&gt;4</title>
<path fill="none" stroke="grey" stroke-width="2" d="M24.08,-431.85C16.1,-422.12 7.29,-409.27 3.11,-396 -1.69,-380.74 0.26,-375.74 3.11,-360 15.31,-292.74 25.69,-276.7 57.11,-216 61.97,-206.62 68.18,-196.9 74.07,-188.39"/>
<polygon fill="grey" stroke="grey" stroke-width="2" points="77.08,-190.19 80.02,-180.02 71.38,-186.14 77.08,-190.19"/>
</g>
<!-- 14 -->
<g id="node14" class="node">
<title>14</title>
<path fill="none" stroke="#56d8c9" stroke-width="2" d="M113.61,-396C113.61,-396 24.61,-396 24.61,-396 18.61,-396 12.61,-390 12.61,-384 12.61,-384 12.61,-372 12.61,-372 12.61,-366 18.61,-360 24.61,-360 24.61,-360 113.61,-360 113.61,-360 119.61,-360 125.61,-366 125.61,-372 125.61,-372 125.61,-384 125.61,-384 125.61,-390 119.61,-396 113.61,-396"/>
<text text-anchor="middle" x="69.11" y="-375.5" font-family="sans" font-size="10.00">generate_gentrome</text>
</g>
<!-- 7&#45;&gt;14 -->
<g id="edge19" class="edge">
<title>7&#45;&gt;14</title>
<path fill="none" stroke="grey" stroke-width="2" d="M47.28,-431.7C50.55,-423.81 54.49,-414.3 58.12,-405.55"/>
<polygon fill="grey" stroke="grey" stroke-width="2" points="61.43,-406.68 62.03,-396.1 54.97,-404 61.43,-406.68"/>
</g>
<!-- 8 -->
<g id="node8" class="node">
<title>8</title>
<path fill="none" stroke="#61d856" stroke-width="2" d="M314.61,-252C314.61,-252 235.61,-252 235.61,-252 229.61,-252 223.61,-246 223.61,-240 223.61,-240 223.61,-228 223.61,-228 223.61,-222 229.61,-216 235.61,-216 235.61,-216 314.61,-216 314.61,-216 320.61,-216 326.61,-222 326.61,-228 326.61,-228 326.61,-240 326.61,-240 326.61,-246 320.61,-252 314.61,-252"/>
<text text-anchor="middle" x="275.11" y="-231.5" font-family="sans" font-size="10.00">star_second_pass</text>
</g>
<!-- 8&#45;&gt;5 -->
<g id="edge7" class="edge">
<title>8&#45;&gt;5</title>
<path fill="none" stroke="grey" stroke-width="2" d="M275.11,-215.7C275.11,-207.98 275.11,-198.71 275.11,-190.11"/>
<polygon fill="grey" stroke="grey" stroke-width="2" points="278.61,-190.1 275.11,-180.1 271.61,-190.1 278.61,-190.1"/>
</g>
<!-- 9 -->
<g id="node9" class="node">
<title>9</title>
<path fill="none" stroke="#56d0d8" stroke-width="2" d="M126.11,-324C126.11,-324 58.11,-324 58.11,-324 52.11,-324 46.11,-318 46.11,-312 46.11,-312 46.11,-300 46.11,-300 46.11,-294 52.11,-288 58.11,-288 58.11,-288 126.11,-288 126.11,-288 132.11,-288 138.11,-294 138.11,-300 138.11,-300 138.11,-312 138.11,-312 138.11,-318 132.11,-324 126.11,-324"/>
<text text-anchor="middle" x="92.11" y="-303.5" font-family="sans" font-size="10.00">generate_index</text>
</g>
<!-- 9&#45;&gt;6 -->
<g id="edge8" class="edge">
<title>9&#45;&gt;6</title>
<path fill="none" stroke="grey" stroke-width="2" d="M92.36,-287.7C92.47,-279.98 92.6,-270.71 92.73,-262.11"/>
<polygon fill="grey" stroke="grey" stroke-width="2" points="96.23,-262.15 92.87,-252.1 89.23,-262.05 96.23,-262.15"/>
</g>
<!-- 10 -->
<g id="node10" class="node">
<title>10</title>
<path fill="none" stroke="#56d863" stroke-width="2" d="M242.11,-396C242.11,-396 212.11,-396 212.11,-396 206.11,-396 200.11,-390 200.11,-384 200.11,-384 200.11,-372 200.11,-372 200.11,-366 206.11,-360 212.11,-360 212.11,-360 242.11,-360 242.11,-360 248.11,-360 254.11,-366 254.11,-372 254.11,-372 254.11,-384 254.11,-384 254.11,-390 248.11,-396 242.11,-396"/>
<text text-anchor="middle" x="227.11" y="-375.5" font-family="sans" font-size="10.00">trim</text>
</g>
<!-- 10&#45;&gt;6 -->
<g id="edge9" class="edge">
<title>10&#45;&gt;6</title>
<path fill="none" stroke="grey" stroke-width="2" d="M212.38,-359.98C196.56,-341.86 170.53,-312.47 147.11,-288 138.03,-278.51 127.8,-268.35 118.71,-259.48"/>
<polygon fill="grey" stroke="grey" stroke-width="2" points="121.01,-256.84 111.39,-252.39 116.14,-261.86 121.01,-256.84"/>
</g>
<!-- 10&#45;&gt;8 -->
<g id="edge13" class="edge">
<title>10&#45;&gt;8</title>
<path fill="none" stroke="grey" stroke-width="2" d="M222.22,-359.88C217.86,-341.4 213.52,-311.48 223.11,-288 227.6,-277.02 235.58,-267.08 243.97,-258.86"/>
<polygon fill="grey" stroke="grey" stroke-width="2" points="246.35,-261.42 251.36,-252.09 241.62,-256.26 246.35,-261.42"/>
</g>
<!-- 13 -->
<g id="node13" class="node">
<title>13</title>
<path fill="none" stroke="#56d87b" stroke-width="2" d="M307.61,-324C307.61,-324 244.61,-324 244.61,-324 238.61,-324 232.61,-318 232.61,-312 232.61,-312 232.61,-300 232.61,-300 232.61,-294 238.61,-288 244.61,-288 244.61,-288 307.61,-288 307.61,-288 313.61,-288 319.61,-294 319.61,-300 319.61,-300 319.61,-312 319.61,-312 319.61,-318 313.61,-324 307.61,-324"/>
<text text-anchor="middle" x="276.11" y="-303.5" font-family="sans" font-size="10.00">star_first_pass</text>
</g>
<!-- 10&#45;&gt;13 -->
<g id="edge18" class="edge">
<title>10&#45;&gt;13</title>
<path fill="none" stroke="grey" stroke-width="2" d="M239.23,-359.7C244.98,-351.47 251.98,-341.48 258.32,-332.42"/>
<polygon fill="grey" stroke="grey" stroke-width="2" points="261.27,-334.3 264.14,-324.1 255.54,-330.29 261.27,-334.3"/>
</g>
<!-- 11 -->
<g id="node11" class="node">
<title>11</title>
<path fill="none" stroke="#56a2d8" stroke-width="2" d="M103.11,-540C103.11,-540 73.11,-540 73.11,-540 67.11,-540 61.11,-534 61.11,-528 61.11,-528 61.11,-516 61.11,-516 61.11,-510 67.11,-504 73.11,-504 73.11,-504 103.11,-504 103.11,-504 109.11,-504 115.11,-510 115.11,-516 115.11,-516 115.11,-528 115.11,-528 115.11,-534 109.11,-540 103.11,-540"/>
<text text-anchor="middle" x="88.11" y="-519.5" font-family="sans" font-size="10.00">faidx</text>
</g>
<!-- 11&#45;&gt;7 -->
<g id="edge10" class="edge">
<title>11&#45;&gt;7</title>
<path fill="none" stroke="grey" stroke-width="2" d="M76.25,-503.7C70.61,-495.47 63.76,-485.48 57.55,-476.42"/>
<polygon fill="grey" stroke="grey" stroke-width="2" points="60.38,-474.37 51.84,-468.1 54.61,-478.33 60.38,-474.37"/>
</g>
<!-- 15 -->
<g id="node15" class="node">
<title>15</title>
<path fill="none" stroke="#d8d356" stroke-width="2" d="M173.11,-468C173.11,-468 97.11,-468 97.11,-468 91.11,-468 85.11,-462 85.11,-456 85.11,-456 85.11,-444 85.11,-444 85.11,-438 91.11,-432 97.11,-432 97.11,-432 173.11,-432 173.11,-432 179.11,-432 185.11,-438 185.11,-444 185.11,-444 185.11,-456 185.11,-456 185.11,-462 179.11,-468 173.11,-468"/>
<text text-anchor="middle" x="135.11" y="-447.5" font-family="sans" font-size="10.00">generate_decoys</text>
</g>
<!-- 11&#45;&gt;15 -->
<g id="edge20" class="edge">
<title>11&#45;&gt;15</title>
<path fill="none" stroke="grey" stroke-width="2" d="M99.73,-503.7C105.25,-495.47 111.96,-485.48 118.05,-476.42"/>
<polygon fill="grey" stroke="grey" stroke-width="2" points="120.96,-478.36 123.63,-468.1 115.15,-474.46 120.96,-478.36"/>
</g>
<!-- 12 -->
<g id="node12" class="node">
<title>12</title>
<path fill="none" stroke="#5673d8" stroke-width="2" d="M337.11,-396C337.11,-396 293.11,-396 293.11,-396 287.11,-396 281.11,-390 281.11,-384 281.11,-384 281.11,-372 281.11,-372 281.11,-366 287.11,-360 293.11,-360 293.11,-360 337.11,-360 337.11,-360 343.11,-360 349.11,-366 349.11,-372 349.11,-372 349.11,-384 349.11,-384 349.11,-390 343.11,-396 337.11,-396"/>
<text text-anchor="middle" x="315.11" y="-375.5" font-family="sans" font-size="10.00">star_index</text>
</g>
<!-- 12&#45;&gt;8 -->
<g id="edge12" class="edge">
<title>12&#45;&gt;8</title>
<path fill="none" stroke="grey" stroke-width="2" d="M323.09,-359.94C330.5,-341.53 339.04,-311.65 329.11,-288 324.47,-276.95 316.28,-267.04 307.65,-258.86"/>
<polygon fill="grey" stroke="grey" stroke-width="2" points="309.85,-256.14 300.04,-252.14 305.22,-261.38 309.85,-256.14"/>
</g>
<!-- 12&#45;&gt;13 -->
<g id="edge17" class="edge">
<title>12&#45;&gt;13</title>
<path fill="none" stroke="grey" stroke-width="2" d="M305.47,-359.7C300.99,-351.64 295.56,-341.89 290.59,-332.98"/>
<polygon fill="grey" stroke="grey" stroke-width="2" points="293.57,-331.14 285.64,-324.1 287.45,-334.54 293.57,-331.14"/>
</g>
<!-- 13&#45;&gt;8 -->
<g id="edge11" class="edge">
<title>13&#45;&gt;8</title>
<path fill="none" stroke="grey" stroke-width="2" d="M275.87,-287.7C275.76,-279.98 275.62,-270.71 275.5,-262.11"/>
<polygon fill="grey" stroke="grey" stroke-width="2" points="279,-262.05 275.36,-252.1 272,-262.15 279,-262.05"/>
</g>
<!-- 14&#45;&gt;9 -->
<g id="edge14" class="edge">
<title>14&#45;&gt;9</title>
<path fill="none" stroke="grey" stroke-width="2" d="M74.8,-359.7C77.36,-351.9 80.45,-342.51 83.3,-333.83"/>
<polygon fill="grey" stroke="grey" stroke-width="2" points="86.7,-334.7 86.49,-324.1 80.05,-332.51 86.7,-334.7"/>
</g>
<!-- 15&#45;&gt;9 -->
<g id="edge15" class="edge">
<title>15&#45;&gt;9</title>
<path fill="none" stroke="grey" stroke-width="2" d="M138.15,-431.7C140.63,-413.33 142.53,-383.74 134.11,-360 130.52,-349.88 124.14,-340.22 117.41,-331.99"/>
<polygon fill="grey" stroke="grey" stroke-width="2" points="119.87,-329.49 110.66,-324.27 114.6,-334.1 119.87,-329.49"/>
</g>
<!-- 16 -->
<g id="node16" class="node">
<title>16</title>
<path fill="none" stroke="#d88556" stroke-width="2" d="M275.11,-468C275.11,-468 215.11,-468 215.11,-468 209.11,-468 203.11,-462 203.11,-456 203.11,-456 203.11,-444 203.11,-444 203.11,-438 209.11,-432 215.11,-432 215.11,-432 275.11,-432 275.11,-432 281.11,-432 287.11,-438 287.11,-444 287.11,-444 287.11,-456 287.11,-456 287.11,-462 281.11,-468 275.11,-468"/>
<text text-anchor="middle" x="245.11" y="-447.5" font-family="sans" font-size="10.00">check_pairing</text>
</g>
<!-- 16&#45;&gt;10 -->
<g id="edge16" class="edge">
<title>16&#45;&gt;10</title>
<path fill="none" stroke="grey" stroke-width="2" d="M240.66,-431.7C238.66,-423.9 236.24,-414.51 234.01,-405.83"/>
<polygon fill="grey" stroke="grey" stroke-width="2" points="237.39,-404.92 231.51,-396.1 230.61,-406.66 237.39,-404.92"/>
</g>
<!-- 17 -->
<g id="node17" class="node">
<title>17</title>
<path fill="none" stroke="#78d856" stroke-width="2" d="M266.61,-540C266.61,-540 223.61,-540 223.61,-540 217.61,-540 211.61,-534 211.61,-528 211.61,-528 211.61,-516 211.61,-516 211.61,-510 217.61,-504 223.61,-504 223.61,-504 266.61,-504 266.61,-504 272.61,-504 278.61,-510 278.61,-516 278.61,-516 278.61,-528 278.61,-528 278.61,-534 272.61,-540 266.61,-540"/>
<text text-anchor="middle" x="245.11" y="-519.5" font-family="sans" font-size="10.00">join_reads</text>
</g>
<!-- 17&#45;&gt;16 -->
<g id="edge21" class="edge">
<title>17&#45;&gt;16</title>
<path fill="none" stroke="grey" stroke-width="2" d="M245.11,-503.7C245.11,-495.98 245.11,-486.71 245.11,-478.11"/>
<polygon fill="grey" stroke="grey" stroke-width="2" points="248.61,-478.1 245.11,-468.1 241.61,-478.1 248.61,-478.1"/>
</g>
</g>
</svg>
