<?xml version="1.0" encoding="UTF-8" standalone="no"?>
<!DOCTYPE svg PUBLIC "-//W3C//DTD SVG 1.1//EN"
 "http://www.w3.org/Graphics/SVG/1.1/DTD/svg11.dtd">
<!-- Generated by graphviz version 2.43.0 (0)
 -->
<!-- Title: snakemake_dag Pages: 1 -->
<svg width="393pt" height="548pt"
 viewBox="0.00 0.00 393.00 548.00" xmlns="http://www.w3.org/2000/svg" xmlns:xlink="http://www.w3.org/1999/xlink">
<g id="graph0" class="graph" transform="scale(1 1) rotate(0) translate(4 544)">
<title>snakemake_dag</title>
<polygon fill="white" stroke="transparent" points="-4,4 -4,-544 389,-544 389,4 -4,4"/>
<!-- 1 -->
<g id="node1" class="node">
<title>1</title>
<path fill="none" stroke="#56c9d8" stroke-width="2" d="M135.5,-36C135.5,-36 94.5,-36 94.5,-36 88.5,-36 82.5,-30 82.5,-24 82.5,-24 82.5,-12 82.5,-12 82.5,-6 88.5,0 94.5,0 94.5,0 135.5,0 135.5,0 141.5,0 147.5,-6 147.5,-12 147.5,-12 147.5,-24 147.5,-24 147.5,-30 141.5,-36 135.5,-36"/>
<text text-anchor="middle" x="115" y="-15.5" font-family="sans" font-size="10.00">annot_res</text>
</g>
<!-- 2 -->
<g id="node2" class="node">
<title>2</title>
<path fill="none" stroke="#d85656" stroke-width="2" d="M81.5,-108C81.5,-108 48.5,-108 48.5,-108 42.5,-108 36.5,-102 36.5,-96 36.5,-96 36.5,-84 36.5,-84 36.5,-78 42.5,-72 48.5,-72 48.5,-72 81.5,-72 81.5,-72 87.5,-72 93.5,-78 93.5,-84 93.5,-84 93.5,-96 93.5,-96 93.5,-102 87.5,-108 81.5,-108"/>
<text text-anchor="middle" x="65" y="-87.5" font-family="sans" font-size="10.00">de_wald</text>
</g>
<!-- 2&#45;&gt;1 -->
<g id="edge1" class="edge">
<title>2&#45;&gt;1</title>
<path fill="none" stroke="grey" stroke-width="2" d="M77.36,-71.7C83.23,-63.47 90.37,-53.48 96.84,-44.42"/>
<polygon fill="grey" stroke="grey" stroke-width="2" points="99.82,-46.28 102.78,-36.1 94.12,-42.21 99.82,-46.28"/>
</g>
<!-- 3 -->
<g id="node3" class="node">
<title>3</title>
<path fill="none" stroke="#d87d56" stroke-width="2" d="M206.5,-108C206.5,-108 123.5,-108 123.5,-108 117.5,-108 111.5,-102 111.5,-96 111.5,-96 111.5,-84 111.5,-84 111.5,-78 117.5,-72 123.5,-72 123.5,-72 206.5,-72 206.5,-72 212.5,-72 218.5,-78 218.5,-84 218.5,-84 218.5,-96 218.5,-96 218.5,-102 212.5,-108 206.5,-108"/>
<text text-anchor="middle" x="165" y="-87.5" font-family="sans" font-size="10.00">parse_annotations</text>
</g>
<!-- 3&#45;&gt;1 -->
<g id="edge2" class="edge">
<title>3&#45;&gt;1</title>
<path fill="none" stroke="grey" stroke-width="2" d="M152.64,-71.7C146.77,-63.47 139.63,-53.48 133.16,-44.42"/>
<polygon fill="grey" stroke="grey" stroke-width="2" points="135.88,-42.21 127.22,-36.1 130.18,-46.28 135.88,-42.21"/>
</g>
<!-- 4 -->
<g id="node4" class="node">
<title>4</title>
<path fill="none" stroke="#56d8a2" stroke-width="2" d="M118,-180C118,-180 12,-180 12,-180 6,-180 0,-174 0,-168 0,-168 0,-156 0,-156 0,-150 6,-144 12,-144 12,-144 118,-144 118,-144 124,-144 130,-150 130,-156 130,-156 130,-168 130,-168 130,-174 124,-180 118,-180"/>
<text text-anchor="middle" x="65" y="-159.5" font-family="sans" font-size="10.00">generate_deseq_object</text>
</g>
<!-- 4&#45;&gt;2 -->
<g id="edge3" class="edge">
<title>4&#45;&gt;2</title>
<path fill="none" stroke="grey" stroke-width="2" d="M65,-143.7C65,-135.98 65,-126.71 65,-118.11"/>
<polygon fill="grey" stroke="grey" stroke-width="2" points="68.5,-118.1 65,-108.1 61.5,-118.1 68.5,-118.1"/>
</g>
<!-- 5 -->
<g id="node5" class="node">
<title>5</title>
<path fill="none" stroke="#d8c356" stroke-width="2" d="M159,-252C159,-252 129,-252 129,-252 123,-252 117,-246 117,-240 117,-240 117,-228 117,-228 117,-222 123,-216 129,-216 129,-216 159,-216 159,-216 165,-216 171,-222 171,-228 171,-228 171,-240 171,-240 171,-246 165,-252 159,-252"/>
<text text-anchor="middle" x="144" y="-231.5" font-family="sans" font-size="10.00">salmon</text>
</g>
<!-- 5&#45;&gt;4 -->
<g id="edge5" class="edge">
<title>5&#45;&gt;4</title>
<path fill="none" stroke="grey" stroke-width="2" d="M124.47,-215.7C114.62,-206.97 102.51,-196.24 91.8,-186.75"/>
<polygon fill="grey" stroke="grey" stroke-width="2" points="94.11,-184.12 84.3,-180.1 89.47,-189.36 94.11,-184.12"/>
</g>
<!-- 6 -->
<g id="node6" class="node">
<title>6</title>
<path fill="none" stroke="#567bd8" stroke-width="2" d="M123,-468C123,-468 93,-468 93,-468 87,-468 81,-462 81,-456 81,-456 81,-444 81,-444 81,-438 87,-432 93,-432 93,-432 123,-432 123,-432 129,-432 135,-438 135,-444 135,-444 135,-456 135,-456 135,-462 129,-468 123,-468"/>
<text text-anchor="middle" x="108" y="-447.5" font-family="sans" font-size="10.00">gffread</text>
</g>
<!-- 6&#45;&gt;4 -->
<g id="edge4" class="edge">
<title>6&#45;&gt;4</title>
<path fill="none" stroke="grey" stroke-width="2" d="M80.76,-435.01C66.38,-426 50.07,-412.83 42,-396 9.08,-327.34 36.65,-234.4 53.82,-189.48"/>
<polygon fill="grey" stroke="grey" stroke-width="2" points="57.09,-190.73 57.5,-180.14 50.57,-188.16 57.09,-190.73"/>
</g>
<!-- 10 -->
<g id="node10" class="node">
<title>10</title>
<path fill="none" stroke="#d8a456" stroke-width="2" d="M152.5,-396C152.5,-396 63.5,-396 63.5,-396 57.5,-396 51.5,-390 51.5,-384 51.5,-384 51.5,-372 51.5,-372 51.5,-366 57.5,-360 63.5,-360 63.5,-360 152.5,-360 152.5,-360 158.5,-360 164.5,-366 164.5,-372 164.5,-372 164.5,-384 164.5,-384 164.5,-390 158.5,-396 152.5,-396"/>
<text text-anchor="middle" x="108" y="-375.5" font-family="sans" font-size="10.00">generate_gentrome</text>
</g>
<!-- 6&#45;&gt;10 -->
<g id="edge12" class="edge">
<title>6&#45;&gt;10</title>
<path fill="none" stroke="grey" stroke-width="2" d="M108,-431.7C108,-423.98 108,-414.71 108,-406.11"/>
<polygon fill="grey" stroke="grey" stroke-width="2" points="111.5,-406.1 108,-396.1 104.5,-406.1 111.5,-406.1"/>
</g>
<!-- 7 -->
<g id="node7" class="node">
<title>7</title>
<path fill="none" stroke="#56d87b" stroke-width="2" d="M178,-324C178,-324 110,-324 110,-324 104,-324 98,-318 98,-312 98,-312 98,-300 98,-300 98,-294 104,-288 110,-288 110,-288 178,-288 178,-288 184,-288 190,-294 190,-300 190,-300 190,-312 190,-312 190,-318 184,-324 178,-324"/>
<text text-anchor="middle" x="144" y="-303.5" font-family="sans" font-size="10.00">generate_index</text>
</g>
<!-- 7&#45;&gt;5 -->
<g id="edge7" class="edge">
<title>7&#45;&gt;5</title>
<path fill="none" stroke="grey" stroke-width="2" d="M144,-287.7C144,-279.98 144,-270.71 144,-262.11"/>
<polygon fill="grey" stroke="grey" stroke-width="2" points="147.5,-262.1 144,-252.1 140.5,-262.1 147.5,-262.1"/>
</g>
<!-- 8 -->
<g id="node8" class="node">
<title>8</title>
<path fill="none" stroke="#56d8c9" stroke-width="2" d="M322,-324C322,-324 292,-324 292,-324 286,-324 280,-318 280,-312 280,-312 280,-300 280,-300 280,-294 286,-288 292,-288 292,-288 322,-288 322,-288 328,-288 334,-294 334,-300 334,-300 334,-312 334,-312 334,-318 328,-324 322,-324"/>
<text text-anchor="middle" x="307" y="-303.5" font-family="sans" font-size="10.00">trim</text>
</g>
<!-- 8&#45;&gt;5 -->
<g id="edge6" class="edge">
<title>8&#45;&gt;5</title>
<path fill="none" stroke="grey" stroke-width="2" d="M279.72,-293.28C252.49,-281.59 210.47,-263.55 180.41,-250.64"/>
<polygon fill="grey" stroke="grey" stroke-width="2" points="181.67,-247.37 171.1,-246.64 178.91,-253.8 181.67,-247.37"/>
</g>
<!-- 9 -->
<g id="node9" class="node">
<title>9</title>
<path fill="none" stroke="#56a2d8" stroke-width="2" d="M185,-540C185,-540 155,-540 155,-540 149,-540 143,-534 143,-528 143,-528 143,-516 143,-516 143,-510 149,-504 155,-504 155,-504 185,-504 185,-504 191,-504 197,-510 197,-516 197,-516 197,-528 197,-528 197,-534 191,-540 185,-540"/>
<text text-anchor="middle" x="170" y="-519.5" font-family="sans" font-size="10.00">faidx</text>
</g>
<!-- 9&#45;&gt;6 -->
<g id="edge8" class="edge">
<title>9&#45;&gt;6</title>
<path fill="none" stroke="grey" stroke-width="2" d="M154.67,-503.7C147.24,-495.3 138.18,-485.07 130.02,-475.86"/>
<polygon fill="grey" stroke="grey" stroke-width="2" points="132.4,-473.27 123.15,-468.1 127.16,-477.91 132.4,-473.27"/>
</g>
<!-- 11 -->
<g id="node11" class="node">
<title>11</title>
<path fill="none" stroke="#78d856" stroke-width="2" d="M271,-396C271,-396 195,-396 195,-396 189,-396 183,-390 183,-384 183,-384 183,-372 183,-372 183,-366 189,-360 195,-360 195,-360 271,-360 271,-360 277,-360 283,-366 283,-372 283,-372 283,-384 283,-384 283,-390 277,-396 271,-396"/>
<text text-anchor="middle" x="233" y="-375.5" font-family="sans" font-size="10.00">generate_decoys</text>
</g>
<!-- 9&#45;&gt;11 -->
<g id="edge13" class="edge">
<title>9&#45;&gt;11</title>
<path fill="none" stroke="grey" stroke-width="2" d="M177.6,-503.87C188.43,-479.46 208.41,-434.43 221.18,-405.64"/>
<polygon fill="grey" stroke="grey" stroke-width="2" points="224.52,-406.75 225.37,-396.19 218.12,-403.91 224.52,-406.75"/>
</g>
<!-- 10&#45;&gt;7 -->
<g id="edge10" class="edge">
<title>10&#45;&gt;7</title>
<path fill="none" stroke="grey" stroke-width="2" d="M116.9,-359.7C121,-351.73 125.95,-342.1 130.49,-333.26"/>
<polygon fill="grey" stroke="grey" stroke-width="2" points="133.74,-334.6 135.2,-324.1 127.52,-331.4 133.74,-334.6"/>
</g>
<!-- 11&#45;&gt;7 -->
<g id="edge9" class="edge">
<title>11&#45;&gt;7</title>
<path fill="none" stroke="grey" stroke-width="2" d="M211,-359.7C199.79,-350.88 186,-340.03 173.85,-330.47"/>
<polygon fill="grey" stroke="grey" stroke-width="2" points="175.77,-327.54 165.75,-324.1 171.44,-333.04 175.77,-327.54"/>
</g>
<!-- 12 -->
<g id="node12" class="node">
<title>12</title>
<path fill="none" stroke="#59d856" stroke-width="2" d="M373,-396C373,-396 313,-396 313,-396 307,-396 301,-390 301,-384 301,-384 301,-372 301,-372 301,-366 307,-360 313,-360 313,-360 373,-360 373,-360 379,-360 385,-366 385,-372 385,-372 385,-384 385,-384 385,-390 379,-396 373,-396"/>
<text text-anchor="middle" x="343" y="-375.5" font-family="sans" font-size="10.00">check_pairing</text>
</g>
<!-- 12&#45;&gt;8 -->
<g id="edge11" class="edge">
<title>12&#45;&gt;8</title>
<path fill="none" stroke="grey" stroke-width="2" d="M334.1,-359.7C330,-351.73 325.05,-342.1 320.51,-333.26"/>
<polygon fill="grey" stroke="grey" stroke-width="2" points="323.48,-331.4 315.8,-324.1 317.26,-334.6 323.48,-331.4"/>
</g>
<!-- 13 -->
<g id="node13" class="node">
<title>13</title>
<path fill="none" stroke="#9fd856" stroke-width="2" d="M364.5,-468C364.5,-468 321.5,-468 321.5,-468 315.5,-468 309.5,-462 309.5,-456 309.5,-456 309.5,-444 309.5,-444 309.5,-438 315.5,-432 321.5,-432 321.5,-432 364.5,-432 364.5,-432 370.5,-432 376.5,-438 376.5,-444 376.5,-444 376.5,-456 376.5,-456 376.5,-462 370.5,-468 364.5,-468"/>
<text text-anchor="middle" x="343" y="-447.5" font-family="sans" font-size="10.00">join_reads</text>
</g>
<!-- 13&#45;&gt;12 -->
<g id="edge14" class="edge">
<title>13&#45;&gt;12</title>
<path fill="none" stroke="grey" stroke-width="2" d="M343,-431.7C343,-423.98 343,-414.71 343,-406.11"/>
<polygon fill="grey" stroke="grey" stroke-width="2" points="346.5,-406.1 343,-396.1 339.5,-406.1 346.5,-406.1"/>
</g>
</g>
</svg>
