<?xml version="1.0" encoding="UTF-8" standalone="no"?>
<!DOCTYPE svg PUBLIC "-//W3C//DTD SVG 1.1//EN"
 "http://www.w3.org/Graphics/SVG/1.1/DTD/svg11.dtd">
<!-- Generated by graphviz version 2.43.0 (0)
 -->
<!-- Title: snakemake_dag Pages: 1 -->
<svg width="468pt" height="548pt"
 viewBox="0.00 0.00 468.00 548.00" xmlns="http://www.w3.org/2000/svg" xmlns:xlink="http://www.w3.org/1999/xlink">
<g id="graph0" class="graph" transform="scale(1 1) rotate(0) translate(4 544)">
<title>snakemake_dag</title>
<polygon fill="white" stroke="transparent" points="-4,4 -4,-544 464,-544 464,4 -4,4"/>
<!-- 1 -->
<g id="node1" class="node">
<title>1</title>
<path fill="none" stroke="#56d87b" stroke-width="2" d="M377,-36C377,-36 336,-36 336,-36 330,-36 324,-30 324,-24 324,-24 324,-12 324,-12 324,-6 330,0 336,0 336,0 377,0 377,0 383,0 389,-6 389,-12 389,-12 389,-24 389,-24 389,-30 383,-36 377,-36"/>
<text text-anchor="middle" x="356.5" y="-15.5" font-family="sans" font-size="10.00">annot_res</text>
</g>
<!-- 2 -->
<g id="node2" class="node">
<title>2</title>
<path fill="none" stroke="#78d856" stroke-width="2" d="M138.5,-180C138.5,-180 108.5,-180 108.5,-180 102.5,-180 96.5,-174 96.5,-168 96.5,-168 96.5,-156 96.5,-156 96.5,-150 102.5,-144 108.5,-144 108.5,-144 138.5,-144 138.5,-144 144.5,-144 150.5,-150 150.5,-156 150.5,-156 150.5,-168 150.5,-168 150.5,-174 144.5,-180 138.5,-180"/>
<text text-anchor="middle" x="123.5" y="-159.5" font-family="sans" font-size="10.00">multiqc</text>
</g>
<!-- 3 -->
<g id="node3" class="node">
<title>3</title>
<path fill="none" stroke="#d6d856" stroke-width="2" d="M323,-108C323,-108 290,-108 290,-108 284,-108 278,-102 278,-96 278,-96 278,-84 278,-84 278,-78 284,-72 290,-72 290,-72 323,-72 323,-72 329,-72 335,-78 335,-84 335,-84 335,-96 335,-96 335,-102 329,-108 323,-108"/>
<text text-anchor="middle" x="306.5" y="-87.5" font-family="sans" font-size="10.00">de_wald</text>
</g>
<!-- 3&#45;&gt;1 -->
<g id="edge1" class="edge">
<title>3&#45;&gt;1</title>
<path fill="none" stroke="grey" stroke-width="2" d="M318.86,-71.7C324.73,-63.47 331.87,-53.48 338.34,-44.42"/>
<polygon fill="grey" stroke="grey" stroke-width="2" points="341.32,-46.28 344.28,-36.1 335.62,-42.21 341.32,-46.28"/>
</g>
<!-- 4 -->
<g id="node4" class="node">
<title>4</title>
<path fill="none" stroke="#56d8b9" stroke-width="2" d="M448,-108C448,-108 365,-108 365,-108 359,-108 353,-102 353,-96 353,-96 353,-84 353,-84 353,-78 359,-72 365,-72 365,-72 448,-72 448,-72 454,-72 460,-78 460,-84 460,-84 460,-96 460,-96 460,-102 454,-108 448,-108"/>
<text text-anchor="middle" x="406.5" y="-87.5" font-family="sans" font-size="10.00">parse_annotations</text>
</g>
<!-- 4&#45;&gt;1 -->
<g id="edge2" class="edge">
<title>4&#45;&gt;1</title>
<path fill="none" stroke="grey" stroke-width="2" d="M394.14,-71.7C388.27,-63.47 381.13,-53.48 374.66,-44.42"/>
<polygon fill="grey" stroke="grey" stroke-width="2" points="377.38,-42.21 368.72,-36.1 371.68,-46.28 377.38,-42.21"/>
</g>
<!-- 5 -->
<g id="node5" class="node">
<title>5</title>
<path fill="none" stroke="#d87556" stroke-width="2" d="M93.5,-252C93.5,-252 63.5,-252 63.5,-252 57.5,-252 51.5,-246 51.5,-240 51.5,-240 51.5,-228 51.5,-228 51.5,-222 57.5,-216 63.5,-216 63.5,-216 93.5,-216 93.5,-216 99.5,-216 105.5,-222 105.5,-228 105.5,-228 105.5,-240 105.5,-240 105.5,-246 99.5,-252 93.5,-252"/>
<text text-anchor="middle" x="78.5" y="-231.5" font-family="sans" font-size="10.00">fastqc</text>
</g>
<!-- 5&#45;&gt;2 -->
<g id="edge3" class="edge">
<title>5&#45;&gt;2</title>
<path fill="none" stroke="grey" stroke-width="2" d="M89.62,-215.7C94.86,-207.56 101.2,-197.69 106.98,-188.7"/>
<polygon fill="grey" stroke="grey" stroke-width="2" points="110.04,-190.41 112.5,-180.1 104.15,-186.62 110.04,-190.41"/>
</g>
<!-- 6 -->
<g id="node6" class="node">
<title>6</title>
<path fill="none" stroke="#d89556" stroke-width="2" d="M179.5,-252C179.5,-252 149.5,-252 149.5,-252 143.5,-252 137.5,-246 137.5,-240 137.5,-240 137.5,-228 137.5,-228 137.5,-222 143.5,-216 149.5,-216 149.5,-216 179.5,-216 179.5,-216 185.5,-216 191.5,-222 191.5,-228 191.5,-228 191.5,-240 191.5,-240 191.5,-246 185.5,-252 179.5,-252"/>
<text text-anchor="middle" x="164.5" y="-231.5" font-family="sans" font-size="10.00">salmon</text>
</g>
<!-- 6&#45;&gt;2 -->
<g id="edge4" class="edge">
<title>6&#45;&gt;2</title>
<path fill="none" stroke="grey" stroke-width="2" d="M154.37,-215.7C149.65,-207.64 143.94,-197.89 138.72,-188.98"/>
<polygon fill="grey" stroke="grey" stroke-width="2" points="141.59,-186.96 133.52,-180.1 135.55,-190.5 141.59,-186.96"/>
</g>
<!-- 7 -->
<g id="node7" class="node">
<title>7</title>
<path fill="none" stroke="#56b9d8" stroke-width="2" d="M359.5,-180C359.5,-180 253.5,-180 253.5,-180 247.5,-180 241.5,-174 241.5,-168 241.5,-168 241.5,-156 241.5,-156 241.5,-150 247.5,-144 253.5,-144 253.5,-144 359.5,-144 359.5,-144 365.5,-144 371.5,-150 371.5,-156 371.5,-156 371.5,-168 371.5,-168 371.5,-174 365.5,-180 359.5,-180"/>
<text text-anchor="middle" x="306.5" y="-159.5" font-family="sans" font-size="10.00">generate_deseq_object</text>
</g>
<!-- 6&#45;&gt;7 -->
<g id="edge11" class="edge">
<title>6&#45;&gt;7</title>
<path fill="none" stroke="grey" stroke-width="2" d="M191.54,-219.67C211.72,-209.72 239.7,-195.93 263.01,-184.44"/>
<polygon fill="grey" stroke="grey" stroke-width="2" points="264.59,-187.56 272.01,-180 261.49,-181.28 264.59,-187.56"/>
</g>
<!-- 7&#45;&gt;3 -->
<g id="edge5" class="edge">
<title>7&#45;&gt;3</title>
<path fill="none" stroke="grey" stroke-width="2" d="M306.5,-143.7C306.5,-135.98 306.5,-126.71 306.5,-118.11"/>
<polygon fill="grey" stroke="grey" stroke-width="2" points="310,-118.1 306.5,-108.1 303,-118.1 310,-118.1"/>
</g>
<!-- 8 -->
<g id="node8" class="node">
<title>8</title>
<path fill="none" stroke="#b6d856" stroke-width="2" d="M55,-468C55,-468 12,-468 12,-468 6,-468 0,-462 0,-456 0,-456 0,-444 0,-444 0,-438 6,-432 12,-432 12,-432 55,-432 55,-432 61,-432 67,-438 67,-444 67,-444 67,-456 67,-456 67,-462 61,-468 55,-468"/>
<text text-anchor="middle" x="33.5" y="-447.5" font-family="sans" font-size="10.00">join_reads</text>
</g>
<!-- 8&#45;&gt;5 -->
<g id="edge7" class="edge">
<title>8&#45;&gt;5</title>
<path fill="none" stroke="grey" stroke-width="2" d="M26.85,-431.63C23.3,-421.42 19.3,-408.17 17.5,-396 15.16,-380.17 14.84,-375.78 17.5,-360 23.13,-326.6 27.3,-318.27 42.5,-288 47.17,-278.7 53.23,-269.13 59.04,-260.72"/>
<polygon fill="grey" stroke="grey" stroke-width="2" points="61.99,-262.61 64.94,-252.43 56.29,-258.55 61.99,-262.61"/>
</g>
<!-- 12 -->
<g id="node12" class="node">
<title>12</title>
<path fill="none" stroke="#569ad8" stroke-width="2" d="M98.5,-396C98.5,-396 38.5,-396 38.5,-396 32.5,-396 26.5,-390 26.5,-384 26.5,-384 26.5,-372 26.5,-372 26.5,-366 32.5,-360 38.5,-360 38.5,-360 98.5,-360 98.5,-360 104.5,-360 110.5,-366 110.5,-372 110.5,-372 110.5,-384 110.5,-384 110.5,-390 104.5,-396 98.5,-396"/>
<text text-anchor="middle" x="68.5" y="-375.5" font-family="sans" font-size="10.00">check_pairing</text>
</g>
<!-- 8&#45;&gt;12 -->
<g id="edge16" class="edge">
<title>8&#45;&gt;12</title>
<path fill="none" stroke="grey" stroke-width="2" d="M42.15,-431.7C46.14,-423.73 50.95,-414.1 55.37,-405.26"/>
<polygon fill="grey" stroke="grey" stroke-width="2" points="58.61,-406.61 59.95,-396.1 52.35,-403.48 58.61,-406.61"/>
</g>
<!-- 9 -->
<g id="node9" class="node">
<title>9</title>
<path fill="none" stroke="#56d8d8" stroke-width="2" d="M93.5,-324C93.5,-324 63.5,-324 63.5,-324 57.5,-324 51.5,-318 51.5,-312 51.5,-312 51.5,-300 51.5,-300 51.5,-294 57.5,-288 63.5,-288 63.5,-288 93.5,-288 93.5,-288 99.5,-288 105.5,-294 105.5,-300 105.5,-300 105.5,-312 105.5,-312 105.5,-318 99.5,-324 93.5,-324"/>
<text text-anchor="middle" x="78.5" y="-303.5" font-family="sans" font-size="10.00">trim</text>
</g>
<!-- 9&#45;&gt;5 -->
<g id="edge6" class="edge">
<title>9&#45;&gt;5</title>
<path fill="none" stroke="grey" stroke-width="2" d="M78.5,-287.7C78.5,-279.98 78.5,-270.71 78.5,-262.11"/>
<polygon fill="grey" stroke="grey" stroke-width="2" points="82,-262.1 78.5,-252.1 75,-262.1 82,-262.1"/>
</g>
<!-- 9&#45;&gt;6 -->
<g id="edge8" class="edge">
<title>9&#45;&gt;6</title>
<path fill="none" stroke="grey" stroke-width="2" d="M99.76,-287.7C110.59,-278.88 123.92,-268.03 135.66,-258.47"/>
<polygon fill="grey" stroke="grey" stroke-width="2" points="137.94,-261.13 143.49,-252.1 133.52,-255.7 137.94,-261.13"/>
</g>
<!-- 10 -->
<g id="node10" class="node">
<title>10</title>
<path fill="none" stroke="#567bd8" stroke-width="2" d="M212.5,-324C212.5,-324 144.5,-324 144.5,-324 138.5,-324 132.5,-318 132.5,-312 132.5,-312 132.5,-300 132.5,-300 132.5,-294 138.5,-288 144.5,-288 144.5,-288 212.5,-288 212.5,-288 218.5,-288 224.5,-294 224.5,-300 224.5,-300 224.5,-312 224.5,-312 224.5,-318 218.5,-324 212.5,-324"/>
<text text-anchor="middle" x="178.5" y="-303.5" font-family="sans" font-size="10.00">generate_index</text>
</g>
<!-- 10&#45;&gt;6 -->
<g id="edge9" class="edge">
<title>10&#45;&gt;6</title>
<path fill="none" stroke="grey" stroke-width="2" d="M175.04,-287.7C173.5,-279.98 171.64,-270.71 169.92,-262.11"/>
<polygon fill="grey" stroke="grey" stroke-width="2" points="173.31,-261.22 167.92,-252.1 166.45,-262.6 173.31,-261.22"/>
</g>
<!-- 11 -->
<g id="node11" class="node">
<title>11</title>
<path fill="none" stroke="#d8b456" stroke-width="2" d="M318.5,-468C318.5,-468 288.5,-468 288.5,-468 282.5,-468 276.5,-462 276.5,-456 276.5,-456 276.5,-444 276.5,-444 276.5,-438 282.5,-432 288.5,-432 288.5,-432 318.5,-432 318.5,-432 324.5,-432 330.5,-438 330.5,-444 330.5,-444 330.5,-456 330.5,-456 330.5,-462 324.5,-468 318.5,-468"/>
<text text-anchor="middle" x="303.5" y="-447.5" font-family="sans" font-size="10.00">gffread</text>
</g>
<!-- 11&#45;&gt;7 -->
<g id="edge10" class="edge">
<title>11&#45;&gt;7</title>
<path fill="none" stroke="grey" stroke-width="2" d="M330.67,-434.7C344.76,-425.67 360.63,-412.57 368.5,-396 402.27,-324.9 352.97,-232.53 324.42,-188.51"/>
<polygon fill="grey" stroke="grey" stroke-width="2" points="327.3,-186.51 318.85,-180.12 321.47,-190.39 327.3,-186.51"/>
</g>
<!-- 13 -->
<g id="node13" class="node">
<title>13</title>
<path fill="none" stroke="#d85656" stroke-width="2" d="M348,-396C348,-396 259,-396 259,-396 253,-396 247,-390 247,-384 247,-384 247,-372 247,-372 247,-366 253,-360 259,-360 259,-360 348,-360 348,-360 354,-360 360,-366 360,-372 360,-372 360,-384 360,-384 360,-390 354,-396 348,-396"/>
<text text-anchor="middle" x="303.5" y="-375.5" font-family="sans" font-size="10.00">generate_gentrome</text>
</g>
<!-- 11&#45;&gt;13 -->
<g id="edge17" class="edge">
<title>11&#45;&gt;13</title>
<path fill="none" stroke="grey" stroke-width="2" d="M303.5,-431.7C303.5,-423.98 303.5,-414.71 303.5,-406.11"/>
<polygon fill="grey" stroke="grey" stroke-width="2" points="307,-406.1 303.5,-396.1 300,-406.1 307,-406.1"/>
</g>
<!-- 12&#45;&gt;9 -->
<g id="edge12" class="edge">
<title>12&#45;&gt;9</title>
<path fill="none" stroke="grey" stroke-width="2" d="M70.97,-359.7C72.07,-351.98 73.4,-342.71 74.63,-334.11"/>
<polygon fill="grey" stroke="grey" stroke-width="2" points="78.11,-334.5 76.06,-324.1 71.18,-333.51 78.11,-334.5"/>
</g>
<!-- 13&#45;&gt;10 -->
<g id="edge13" class="edge">
<title>13&#45;&gt;10</title>
<path fill="none" stroke="grey" stroke-width="2" d="M272.92,-359.88C256.43,-350.64 235.88,-339.13 218.16,-329.21"/>
<polygon fill="grey" stroke="grey" stroke-width="2" points="219.63,-326.02 209.2,-324.19 216.21,-332.13 219.63,-326.02"/>
</g>
<!-- 14 -->
<g id="node14" class="node">
<title>14</title>
<path fill="none" stroke="#97d856" stroke-width="2" d="M216.5,-396C216.5,-396 140.5,-396 140.5,-396 134.5,-396 128.5,-390 128.5,-384 128.5,-384 128.5,-372 128.5,-372 128.5,-366 134.5,-360 140.5,-360 140.5,-360 216.5,-360 216.5,-360 222.5,-360 228.5,-366 228.5,-372 228.5,-372 228.5,-384 228.5,-384 228.5,-390 222.5,-396 216.5,-396"/>
<text text-anchor="middle" x="178.5" y="-375.5" font-family="sans" font-size="10.00">generate_decoys</text>
</g>
<!-- 14&#45;&gt;10 -->
<g id="edge14" class="edge">
<title>14&#45;&gt;10</title>
<path fill="none" stroke="grey" stroke-width="2" d="M178.5,-359.7C178.5,-351.98 178.5,-342.71 178.5,-334.11"/>
<polygon fill="grey" stroke="grey" stroke-width="2" points="182,-334.1 178.5,-324.1 175,-334.1 182,-334.1"/>
</g>
<!-- 15 -->
<g id="node15" class="node">
<title>15</title>
<path fill="none" stroke="#56d89a" stroke-width="2" d="M286.5,-540C286.5,-540 256.5,-540 256.5,-540 250.5,-540 244.5,-534 244.5,-528 244.5,-528 244.5,-516 244.5,-516 244.5,-510 250.5,-504 256.5,-504 256.5,-504 286.5,-504 286.5,-504 292.5,-504 298.5,-510 298.5,-516 298.5,-516 298.5,-528 298.5,-528 298.5,-534 292.5,-540 286.5,-540"/>
<text text-anchor="middle" x="271.5" y="-519.5" font-family="sans" font-size="10.00">faidx</text>
</g>
<!-- 15&#45;&gt;11 -->
<g id="edge15" class="edge">
<title>15&#45;&gt;11</title>
<path fill="none" stroke="grey" stroke-width="2" d="M279.41,-503.7C283.05,-495.73 287.45,-486.1 291.49,-477.26"/>
<polygon fill="grey" stroke="grey" stroke-width="2" points="294.71,-478.65 295.68,-468.1 288.34,-475.74 294.71,-478.65"/>
</g>
<!-- 15&#45;&gt;14 -->
<g id="edge18" class="edge">
<title>15&#45;&gt;14</title>
<path fill="none" stroke="grey" stroke-width="2" d="M260.28,-503.87C244.15,-479.24 214.28,-433.64 195.45,-404.88"/>
<polygon fill="grey" stroke="grey" stroke-width="2" points="198.16,-402.64 189.76,-396.19 192.31,-406.47 198.16,-402.64"/>
</g>
</g>
</svg>
