<?xml version="1.0" encoding="UTF-8" standalone="no"?>
<!DOCTYPE svg PUBLIC "-//W3C//DTD SVG 1.1//EN"
 "http://www.w3.org/Graphics/SVG/1.1/DTD/svg11.dtd">
<!-- Generated by graphviz version 2.43.0 (0)
 -->
<!-- Title: snakemake_dag Pages: 1 -->
<svg width="171pt" height="476pt"
 viewBox="0.00 0.00 171.00 476.00" xmlns="http://www.w3.org/2000/svg" xmlns:xlink="http://www.w3.org/1999/xlink">
<g id="graph0" class="graph" transform="scale(1 1) rotate(0) translate(4 472)">
<title>snakemake_dag</title>
<polygon fill="white" stroke="transparent" points="-4,4 -4,-472 167,-472 167,4 -4,4"/>
<!-- 1 -->
<g id="node1" class="node">
<title>1</title>
<path fill="none" stroke="#d85656" stroke-width="2" d="M98,-36C98,-36 65,-36 65,-36 59,-36 53,-30 53,-24 53,-24 53,-12 53,-12 53,-6 59,0 65,0 65,0 98,0 98,0 104,0 110,-6 110,-12 110,-12 110,-24 110,-24 110,-30 104,-36 98,-36"/>
<text text-anchor="middle" x="81.5" y="-15.5" font-family="sans" font-size="10.00">de_wald</text>
</g>
<!-- 2 -->
<g id="node2" class="node">
<title>2</title>
<path fill="none" stroke="#ced856" stroke-width="2" d="M134.5,-108C134.5,-108 28.5,-108 28.5,-108 22.5,-108 16.5,-102 16.5,-96 16.5,-96 16.5,-84 16.5,-84 16.5,-78 22.5,-72 28.5,-72 28.5,-72 134.5,-72 134.5,-72 140.5,-72 146.5,-78 146.5,-84 146.5,-84 146.5,-96 146.5,-96 146.5,-102 140.5,-108 134.5,-108"/>
<text text-anchor="middle" x="81.5" y="-87.5" font-family="sans" font-size="10.00">generate_deseq_object</text>
</g>
<!-- 2&#45;&gt;1 -->
<g id="edge1" class="edge">
<title>2&#45;&gt;1</title>
<path fill="none" stroke="grey" stroke-width="2" d="M81.5,-71.7C81.5,-63.98 81.5,-54.71 81.5,-46.11"/>
<polygon fill="grey" stroke="grey" stroke-width="2" points="85,-46.1 81.5,-36.1 78,-46.1 85,-46.1"/>
</g>
<!-- 3 -->
<g id="node3" class="node">
<title>3</title>
<path fill="none" stroke="#56d89a" stroke-width="2" d="M96.5,-180C96.5,-180 66.5,-180 66.5,-180 60.5,-180 54.5,-174 54.5,-168 54.5,-168 54.5,-156 54.5,-156 54.5,-150 60.5,-144 66.5,-144 66.5,-144 96.5,-144 96.5,-144 102.5,-144 108.5,-150 108.5,-156 108.5,-156 108.5,-168 108.5,-168 108.5,-174 102.5,-180 96.5,-180"/>
<text text-anchor="middle" x="81.5" y="-159.5" font-family="sans" font-size="10.00">salmon</text>
</g>
<!-- 3&#45;&gt;2 -->
<g id="edge2" class="edge">
<title>3&#45;&gt;2</title>
<path fill="none" stroke="grey" stroke-width="2" d="M81.5,-143.7C81.5,-135.98 81.5,-126.71 81.5,-118.11"/>
<polygon fill="grey" stroke="grey" stroke-width="2" points="85,-118.1 81.5,-108.1 78,-118.1 85,-118.1"/>
</g>
<!-- 4 -->
<g id="node4" class="node">
<title>4</title>
<path fill="none" stroke="#d88556" stroke-width="2" d="M115.5,-252C115.5,-252 47.5,-252 47.5,-252 41.5,-252 35.5,-246 35.5,-240 35.5,-240 35.5,-228 35.5,-228 35.5,-222 41.5,-216 47.5,-216 47.5,-216 115.5,-216 115.5,-216 121.5,-216 127.5,-222 127.5,-228 127.5,-228 127.5,-240 127.5,-240 127.5,-246 121.5,-252 115.5,-252"/>
<text text-anchor="middle" x="81.5" y="-231.5" font-family="sans" font-size="10.00">generate_index</text>
</g>
<!-- 4&#45;&gt;3 -->
<g id="edge3" class="edge">
<title>4&#45;&gt;3</title>
<path fill="none" stroke="grey" stroke-width="2" d="M81.5,-215.7C81.5,-207.98 81.5,-198.71 81.5,-190.11"/>
<polygon fill="grey" stroke="grey" stroke-width="2" points="85,-190.1 81.5,-180.1 78,-190.1 85,-190.1"/>
</g>
<!-- 5 -->
<g id="node5" class="node">
<title>5</title>
<path fill="none" stroke="#56b1d8" stroke-width="2" d="M151,-324C151,-324 12,-324 12,-324 6,-324 0,-318 0,-312 0,-312 0,-300 0,-300 0,-294 6,-288 12,-288 12,-288 151,-288 151,-288 157,-288 163,-294 163,-300 163,-300 163,-312 163,-312 163,-318 157,-324 151,-324"/>
<text text-anchor="middle" x="81.5" y="-303.5" font-family="sans" font-size="10.00">generate_decoy_trancriptome</text>
</g>
<!-- 5&#45;&gt;4 -->
<g id="edge4" class="edge">
<title>5&#45;&gt;4</title>
<path fill="none" stroke="grey" stroke-width="2" d="M81.5,-287.7C81.5,-279.98 81.5,-270.71 81.5,-262.11"/>
<polygon fill="grey" stroke="grey" stroke-width="2" points="85,-262.1 81.5,-252.1 78,-262.1 85,-262.1"/>
</g>
<!-- 6 -->
<g id="node6" class="node">
<title>6</title>
<path fill="none" stroke="#56d86b" stroke-width="2" d="M96.5,-396C96.5,-396 66.5,-396 66.5,-396 60.5,-396 54.5,-390 54.5,-384 54.5,-384 54.5,-372 54.5,-372 54.5,-366 60.5,-360 66.5,-360 66.5,-360 96.5,-360 96.5,-360 102.5,-360 108.5,-366 108.5,-372 108.5,-372 108.5,-384 108.5,-384 108.5,-390 102.5,-396 96.5,-396"/>
<text text-anchor="middle" x="81.5" y="-375.5" font-family="sans" font-size="10.00">gffread</text>
</g>
<!-- 6&#45;&gt;5 -->
<g id="edge5" class="edge">
<title>6&#45;&gt;5</title>
<path fill="none" stroke="grey" stroke-width="2" d="M81.5,-359.7C81.5,-351.98 81.5,-342.71 81.5,-334.11"/>
<polygon fill="grey" stroke="grey" stroke-width="2" points="85,-334.1 81.5,-324.1 78,-334.1 85,-334.1"/>
</g>
<!-- 7 -->
<g id="node7" class="node">
<title>7</title>
<path fill="none" stroke="#d8b456" stroke-width="2" d="M96.5,-468C96.5,-468 66.5,-468 66.5,-468 60.5,-468 54.5,-462 54.5,-456 54.5,-456 54.5,-444 54.5,-444 54.5,-438 60.5,-432 66.5,-432 66.5,-432 96.5,-432 96.5,-432 102.5,-432 108.5,-438 108.5,-444 108.5,-444 108.5,-456 108.5,-456 108.5,-462 102.5,-468 96.5,-468"/>
<text text-anchor="middle" x="81.5" y="-447.5" font-family="sans" font-size="10.00">faidx</text>
</g>
<!-- 7&#45;&gt;6 -->
<g id="edge6" class="edge">
<title>7&#45;&gt;6</title>
<path fill="none" stroke="grey" stroke-width="2" d="M81.5,-431.7C81.5,-423.98 81.5,-414.71 81.5,-406.11"/>
<polygon fill="grey" stroke="grey" stroke-width="2" points="85,-406.1 81.5,-396.1 78,-406.1 85,-406.1"/>
</g>
</g>
</svg>
