<?xml version="1.0" encoding="UTF-8" standalone="no"?>
<!DOCTYPE svg PUBLIC "-//W3C//DTD SVG 1.1//EN"
 "http://www.w3.org/Graphics/SVG/1.1/DTD/svg11.dtd">
<!-- Generated by graphviz version 2.43.0 (0)
 -->
<!-- Title: snakemake_dag Pages: 1 -->
<svg width="274pt" height="332pt"
 viewBox="0.00 0.00 273.50 332.00" xmlns="http://www.w3.org/2000/svg" xmlns:xlink="http://www.w3.org/1999/xlink">
<g id="graph0" class="graph" transform="scale(1 1) rotate(0) translate(4 328)">
<title>snakemake_dag</title>
<polygon fill="white" stroke="transparent" points="-4,4 -4,-328 269.5,-328 269.5,4 -4,4"/>
<!-- 1 -->
<g id="node1" class="node">
<title>1</title>
<path fill="none" stroke="#70d856" stroke-width="2" d="M166.5,-36C166.5,-36 136.5,-36 136.5,-36 130.5,-36 124.5,-30 124.5,-24 124.5,-24 124.5,-12 124.5,-12 124.5,-6 130.5,0 136.5,0 136.5,0 166.5,0 166.5,0 172.5,0 178.5,-6 178.5,-12 178.5,-12 178.5,-24 178.5,-24 178.5,-30 172.5,-36 166.5,-36"/>
<text text-anchor="middle" x="151.5" y="-15.5" font-family="sans" font-size="10.00">salmon</text>
</g>
<!-- 2 -->
<g id="node2" class="node">
<title>2</title>
<path fill="none" stroke="#d85656" stroke-width="2" d="M140.5,-108C140.5,-108 72.5,-108 72.5,-108 66.5,-108 60.5,-102 60.5,-96 60.5,-96 60.5,-84 60.5,-84 60.5,-78 66.5,-72 72.5,-72 72.5,-72 140.5,-72 140.5,-72 146.5,-72 152.5,-78 152.5,-84 152.5,-84 152.5,-96 152.5,-96 152.5,-102 146.5,-108 140.5,-108"/>
<text text-anchor="middle" x="106.5" y="-87.5" font-family="sans" font-size="10.00">generate_index</text>
</g>
<!-- 2&#45;&gt;1 -->
<g id="edge2" class="edge">
<title>2&#45;&gt;1</title>
<path fill="none" stroke="grey" stroke-width="2" d="M117.62,-71.7C122.86,-63.56 129.2,-53.69 134.98,-44.7"/>
<polygon fill="grey" stroke="grey" stroke-width="2" points="138.04,-46.41 140.5,-36.1 132.15,-42.62 138.04,-46.41"/>
</g>
<!-- 3 -->
<g id="node3" class="node">
<title>3</title>
<path fill="none" stroke="#afd856" stroke-width="2" d="M225.5,-108C225.5,-108 195.5,-108 195.5,-108 189.5,-108 183.5,-102 183.5,-96 183.5,-96 183.5,-84 183.5,-84 183.5,-78 189.5,-72 195.5,-72 195.5,-72 225.5,-72 225.5,-72 231.5,-72 237.5,-78 237.5,-84 237.5,-84 237.5,-96 237.5,-96 237.5,-102 231.5,-108 225.5,-108"/>
<text text-anchor="middle" x="210.5" y="-87.5" font-family="sans" font-size="10.00">trim</text>
</g>
<!-- 3&#45;&gt;1 -->
<g id="edge1" class="edge">
<title>3&#45;&gt;1</title>
<path fill="none" stroke="grey" stroke-width="2" d="M195.92,-71.7C188.84,-63.3 180.22,-53.07 172.45,-43.86"/>
<polygon fill="grey" stroke="grey" stroke-width="2" points="175.04,-41.49 165.92,-36.1 169.69,-46.01 175.04,-41.49"/>
</g>
<!-- 4 -->
<g id="node4" class="node">
<title>4</title>
<path fill="none" stroke="#d8cb56" stroke-width="2" d="M151,-180C151,-180 12,-180 12,-180 6,-180 0,-174 0,-168 0,-168 0,-156 0,-156 0,-150 6,-144 12,-144 12,-144 151,-144 151,-144 157,-144 163,-150 163,-156 163,-156 163,-168 163,-168 163,-174 157,-180 151,-180"/>
<text text-anchor="middle" x="81.5" y="-159.5" font-family="sans" font-size="10.00">generate_decoy_trancriptome</text>
</g>
<!-- 4&#45;&gt;2 -->
<g id="edge3" class="edge">
<title>4&#45;&gt;2</title>
<path fill="none" stroke="grey" stroke-width="2" d="M87.68,-143.7C90.5,-135.81 93.89,-126.3 97.02,-117.55"/>
<polygon fill="grey" stroke="grey" stroke-width="2" points="100.32,-118.7 100.39,-108.1 93.73,-116.34 100.32,-118.7"/>
</g>
<!-- 5 -->
<g id="node5" class="node">
<title>5</title>
<path fill="none" stroke="#56d873" stroke-width="2" d="M253.5,-180C253.5,-180 193.5,-180 193.5,-180 187.5,-180 181.5,-174 181.5,-168 181.5,-168 181.5,-156 181.5,-156 181.5,-150 187.5,-144 193.5,-144 193.5,-144 253.5,-144 253.5,-144 259.5,-144 265.5,-150 265.5,-156 265.5,-156 265.5,-168 265.5,-168 265.5,-174 259.5,-180 253.5,-180"/>
<text text-anchor="middle" x="223.5" y="-159.5" font-family="sans" font-size="10.00">check_pairing</text>
</g>
<!-- 5&#45;&gt;3 -->
<g id="edge4" class="edge">
<title>5&#45;&gt;3</title>
<path fill="none" stroke="grey" stroke-width="2" d="M220.29,-143.7C218.85,-135.98 217.13,-126.71 215.54,-118.11"/>
<polygon fill="grey" stroke="grey" stroke-width="2" points="218.94,-117.3 213.68,-108.1 212.06,-118.58 218.94,-117.3"/>
</g>
<!-- 6 -->
<g id="node6" class="node">
<title>6</title>
<path fill="none" stroke="#5692d8" stroke-width="2" d="M96.5,-252C96.5,-252 66.5,-252 66.5,-252 60.5,-252 54.5,-246 54.5,-240 54.5,-240 54.5,-228 54.5,-228 54.5,-222 60.5,-216 66.5,-216 66.5,-216 96.5,-216 96.5,-216 102.5,-216 108.5,-222 108.5,-228 108.5,-228 108.5,-240 108.5,-240 108.5,-246 102.5,-252 96.5,-252"/>
<text text-anchor="middle" x="81.5" y="-231.5" font-family="sans" font-size="10.00">gffread</text>
</g>
<!-- 6&#45;&gt;4 -->
<g id="edge5" class="edge">
<title>6&#45;&gt;4</title>
<path fill="none" stroke="grey" stroke-width="2" d="M81.5,-215.7C81.5,-207.98 81.5,-198.71 81.5,-190.11"/>
<polygon fill="grey" stroke="grey" stroke-width="2" points="85,-190.1 81.5,-180.1 78,-190.1 85,-190.1"/>
</g>
<!-- 7 -->
<g id="node7" class="node">
<title>7</title>
<path fill="none" stroke="#d88d56" stroke-width="2" d="M245,-252C245,-252 202,-252 202,-252 196,-252 190,-246 190,-240 190,-240 190,-228 190,-228 190,-222 196,-216 202,-216 202,-216 245,-216 245,-216 251,-216 257,-222 257,-228 257,-228 257,-240 257,-240 257,-246 251,-252 245,-252"/>
<text text-anchor="middle" x="223.5" y="-231.5" font-family="sans" font-size="10.00">join_reads</text>
</g>
<!-- 7&#45;&gt;5 -->
<g id="edge6" class="edge">
<title>7&#45;&gt;5</title>
<path fill="none" stroke="grey" stroke-width="2" d="M223.5,-215.7C223.5,-207.98 223.5,-198.71 223.5,-190.11"/>
<polygon fill="grey" stroke="grey" stroke-width="2" points="227,-190.1 223.5,-180.1 220,-190.1 227,-190.1"/>
</g>
<!-- 8 -->
<g id="node8" class="node">
<title>8</title>
<path fill="none" stroke="#56c9d8" stroke-width="2" d="M96.5,-324C96.5,-324 66.5,-324 66.5,-324 60.5,-324 54.5,-318 54.5,-312 54.5,-312 54.5,-300 54.5,-300 54.5,-294 60.5,-288 66.5,-288 66.5,-288 96.5,-288 96.5,-288 102.5,-288 108.5,-294 108.5,-300 108.5,-300 108.5,-312 108.5,-312 108.5,-318 102.5,-324 96.5,-324"/>
<text text-anchor="middle" x="81.5" y="-303.5" font-family="sans" font-size="10.00">faidx</text>
</g>
<!-- 8&#45;&gt;6 -->
<g id="edge7" class="edge">
<title>8&#45;&gt;6</title>
<path fill="none" stroke="grey" stroke-width="2" d="M81.5,-287.7C81.5,-279.98 81.5,-270.71 81.5,-262.11"/>
<polygon fill="grey" stroke="grey" stroke-width="2" points="85,-262.1 81.5,-252.1 78,-262.1 85,-262.1"/>
</g>
</g>
</svg>
