<?xml version="1.0" encoding="UTF-8" standalone="no"?>
<!DOCTYPE svg PUBLIC "-//W3C//DTD SVG 1.1//EN"
 "http://www.w3.org/Graphics/SVG/1.1/DTD/svg11.dtd">
<!-- Generated by graphviz version 2.43.0 (0)
 -->
<!-- Title: snakemake_dag Pages: 1 -->
<svg width="452pt" height="548pt"
 viewBox="0.00 0.00 451.50 548.00" xmlns="http://www.w3.org/2000/svg" xmlns:xlink="http://www.w3.org/1999/xlink">
<g id="graph0" class="graph" transform="scale(1 1) rotate(0) translate(4 544)">
<title>snakemake_dag</title>
<polygon fill="white" stroke="transparent" points="-4,4 -4,-544 447.5,-544 447.5,4 -4,4"/>
<!-- 1 -->
<g id="node1" class="node">
<title>1</title>
<path fill="none" stroke="#d86e56" stroke-width="2" d="M301.5,-36C301.5,-36 260.5,-36 260.5,-36 254.5,-36 248.5,-30 248.5,-24 248.5,-24 248.5,-12 248.5,-12 248.5,-6 254.5,0 260.5,0 260.5,0 301.5,0 301.5,0 307.5,0 313.5,-6 313.5,-12 313.5,-12 313.5,-24 313.5,-24 313.5,-30 307.5,-36 301.5,-36"/>
<text text-anchor="middle" x="281" y="-15.5" font-family="sans" font-size="10.00">annot_res</text>
</g>
<!-- 2 -->
<g id="node2" class="node">
<title>2</title>
<path fill="none" stroke="#bed856" stroke-width="2" d="M242,-180C242,-180 212,-180 212,-180 206,-180 200,-174 200,-168 200,-168 200,-156 200,-156 200,-150 206,-144 212,-144 212,-144 242,-144 242,-144 248,-144 254,-150 254,-156 254,-156 254,-168 254,-168 254,-174 248,-180 242,-180"/>
<text text-anchor="middle" x="227" y="-159.5" font-family="sans" font-size="10.00">multiqc</text>
</g>
<!-- 3 -->
<g id="node3" class="node">
<title>3</title>
<path fill="none" stroke="#70d856" stroke-width="2" d="M247.5,-108C247.5,-108 214.5,-108 214.5,-108 208.5,-108 202.5,-102 202.5,-96 202.5,-96 202.5,-84 202.5,-84 202.5,-78 208.5,-72 214.5,-72 214.5,-72 247.5,-72 247.5,-72 253.5,-72 259.5,-78 259.5,-84 259.5,-84 259.5,-96 259.5,-96 259.5,-102 253.5,-108 247.5,-108"/>
<text text-anchor="middle" x="231" y="-87.5" font-family="sans" font-size="10.00">de_wald</text>
</g>
<!-- 3&#45;&gt;1 -->
<g id="edge2" class="edge">
<title>3&#45;&gt;1</title>
<path fill="none" stroke="grey" stroke-width="2" d="M243.36,-71.7C249.23,-63.47 256.37,-53.48 262.84,-44.42"/>
<polygon fill="grey" stroke="grey" stroke-width="2" points="265.82,-46.28 268.78,-36.1 260.12,-42.21 265.82,-46.28"/>
</g>
<!-- 4 -->
<g id="node4" class="node">
<title>4</title>
<path fill="none" stroke="#d85656" stroke-width="2" d="M372.5,-108C372.5,-108 289.5,-108 289.5,-108 283.5,-108 277.5,-102 277.5,-96 277.5,-96 277.5,-84 277.5,-84 277.5,-78 283.5,-72 289.5,-72 289.5,-72 372.5,-72 372.5,-72 378.5,-72 384.5,-78 384.5,-84 384.5,-84 384.5,-96 384.5,-96 384.5,-102 378.5,-108 372.5,-108"/>
<text text-anchor="middle" x="331" y="-87.5" font-family="sans" font-size="10.00">parse_annotations</text>
</g>
<!-- 4&#45;&gt;1 -->
<g id="edge1" class="edge">
<title>4&#45;&gt;1</title>
<path fill="none" stroke="grey" stroke-width="2" d="M318.64,-71.7C312.77,-63.47 305.63,-53.48 299.16,-44.42"/>
<polygon fill="grey" stroke="grey" stroke-width="2" points="301.88,-42.21 293.22,-36.1 296.18,-46.28 301.88,-42.21"/>
</g>
<!-- 5 -->
<g id="node5" class="node">
<title>5</title>
<path fill="none" stroke="#56d88a" stroke-width="2" d="M242,-324C242,-324 212,-324 212,-324 206,-324 200,-318 200,-312 200,-312 200,-300 200,-300 200,-294 206,-288 212,-288 212,-288 242,-288 242,-288 248,-288 254,-294 254,-300 254,-300 254,-312 254,-312 254,-318 248,-324 242,-324"/>
<text text-anchor="middle" x="227" y="-303.5" font-family="sans" font-size="10.00">fastqc</text>
</g>
<!-- 5&#45;&gt;2 -->
<g id="edge4" class="edge">
<title>5&#45;&gt;2</title>
<path fill="none" stroke="grey" stroke-width="2" d="M227,-287.87C227,-263.67 227,-219.21 227,-190.39"/>
<polygon fill="grey" stroke="grey" stroke-width="2" points="230.5,-190.19 227,-180.19 223.5,-190.19 230.5,-190.19"/>
</g>
<!-- 6 -->
<g id="node6" class="node">
<title>6</title>
<path fill="none" stroke="#d8a456" stroke-width="2" d="M315,-252C315,-252 285,-252 285,-252 279,-252 273,-246 273,-240 273,-240 273,-228 273,-228 273,-222 279,-216 285,-216 285,-216 315,-216 315,-216 321,-216 327,-222 327,-228 327,-228 327,-240 327,-240 327,-246 321,-252 315,-252"/>
<text text-anchor="middle" x="300" y="-231.5" font-family="sans" font-size="10.00">salmon</text>
</g>
<!-- 6&#45;&gt;2 -->
<g id="edge3" class="edge">
<title>6&#45;&gt;2</title>
<path fill="none" stroke="grey" stroke-width="2" d="M281.96,-215.7C272.94,-207.05 261.88,-196.45 252.06,-187.03"/>
<polygon fill="grey" stroke="grey" stroke-width="2" points="254.48,-184.5 244.84,-180.1 249.63,-189.55 254.48,-184.5"/>
</g>
<!-- 8 -->
<g id="node8" class="node">
<title>8</title>
<path fill="none" stroke="#56d8c1" stroke-width="2" d="M431.5,-180C431.5,-180 284.5,-180 284.5,-180 278.5,-180 272.5,-174 272.5,-168 272.5,-168 272.5,-156 272.5,-156 272.5,-150 278.5,-144 284.5,-144 284.5,-144 431.5,-144 431.5,-144 437.5,-144 443.5,-150 443.5,-156 443.5,-156 443.5,-168 443.5,-168 443.5,-174 437.5,-180 431.5,-180"/>
<text text-anchor="middle" x="358" y="-159.5" font-family="sans" font-size="10.00">generate_deseq_object_salmon</text>
</g>
<!-- 6&#45;&gt;8 -->
<g id="edge15" class="edge">
<title>6&#45;&gt;8</title>
<path fill="none" stroke="grey" stroke-width="2" d="M314.34,-215.7C321.29,-207.3 329.77,-197.07 337.4,-187.86"/>
<polygon fill="grey" stroke="grey" stroke-width="2" points="340.14,-190.04 343.83,-180.1 334.75,-185.57 340.14,-190.04"/>
</g>
<!-- 7 -->
<g id="node7" class="node">
<title>7</title>
<path fill="none" stroke="#59d856" stroke-width="2" d="M144.5,-252C144.5,-252 65.5,-252 65.5,-252 59.5,-252 53.5,-246 53.5,-240 53.5,-240 53.5,-228 53.5,-228 53.5,-222 59.5,-216 65.5,-216 65.5,-216 144.5,-216 144.5,-216 150.5,-216 156.5,-222 156.5,-228 156.5,-228 156.5,-240 156.5,-240 156.5,-246 150.5,-252 144.5,-252"/>
<text text-anchor="middle" x="105" y="-231.5" font-family="sans" font-size="10.00">star_second_pass</text>
</g>
<!-- 7&#45;&gt;2 -->
<g id="edge5" class="edge">
<title>7&#45;&gt;2</title>
<path fill="none" stroke="grey" stroke-width="2" d="M134.84,-215.88C151.78,-206.16 173.11,-193.92 190.97,-183.67"/>
<polygon fill="grey" stroke="grey" stroke-width="2" points="193.03,-186.53 199.96,-178.51 189.55,-180.46 193.03,-186.53"/>
</g>
<!-- 9 -->
<g id="node9" class="node">
<title>9</title>
<path fill="none" stroke="#56d8d8" stroke-width="2" d="M170,-180C170,-180 40,-180 40,-180 34,-180 28,-174 28,-168 28,-168 28,-156 28,-156 28,-150 34,-144 40,-144 40,-144 170,-144 170,-144 176,-144 182,-150 182,-156 182,-156 182,-168 182,-168 182,-174 176,-180 170,-180"/>
<text text-anchor="middle" x="105" y="-159.5" font-family="sans" font-size="10.00">generate_deseq_object_star</text>
</g>
<!-- 7&#45;&gt;9 -->
<g id="edge17" class="edge">
<title>7&#45;&gt;9</title>
<path fill="none" stroke="grey" stroke-width="2" d="M105,-215.7C105,-207.98 105,-198.71 105,-190.11"/>
<polygon fill="grey" stroke="grey" stroke-width="2" points="108.5,-190.1 105,-180.1 101.5,-190.1 108.5,-190.1"/>
</g>
<!-- 8&#45;&gt;3 -->
<g id="edge6" class="edge">
<title>8&#45;&gt;3</title>
<path fill="none" stroke="grey" stroke-width="2" d="M326.93,-143.88C309.26,-134.14 287.01,-121.87 268.39,-111.61"/>
<polygon fill="grey" stroke="grey" stroke-width="2" points="270.02,-108.51 259.58,-106.75 266.64,-114.64 270.02,-108.51"/>
</g>
<!-- 9&#45;&gt;3 -->
<g id="edge7" class="edge">
<title>9&#45;&gt;3</title>
<path fill="none" stroke="grey" stroke-width="2" d="M135.82,-143.88C153.15,-134.25 174.91,-122.16 193.26,-111.97"/>
<polygon fill="grey" stroke="grey" stroke-width="2" points="195.18,-114.9 202.22,-106.99 191.78,-108.78 195.18,-114.9"/>
</g>
<!-- 10 -->
<g id="node10" class="node">
<title>10</title>
<path fill="none" stroke="#a7d856" stroke-width="2" d="M218.5,-540C218.5,-540 175.5,-540 175.5,-540 169.5,-540 163.5,-534 163.5,-528 163.5,-528 163.5,-516 163.5,-516 163.5,-510 169.5,-504 175.5,-504 175.5,-504 218.5,-504 218.5,-504 224.5,-504 230.5,-510 230.5,-516 230.5,-516 230.5,-528 230.5,-528 230.5,-534 224.5,-540 218.5,-540"/>
<text text-anchor="middle" x="197" y="-519.5" font-family="sans" font-size="10.00">join_reads</text>
</g>
<!-- 10&#45;&gt;5 -->
<g id="edge8" class="edge">
<title>10&#45;&gt;5</title>
<path fill="none" stroke="grey" stroke-width="2" d="M199.4,-503.85C204.59,-466.83 216.88,-379.18 223.16,-334.39"/>
<polygon fill="grey" stroke="grey" stroke-width="2" points="226.66,-334.62 224.58,-324.23 219.73,-333.65 226.66,-334.62"/>
</g>
<!-- 16 -->
<g id="node16" class="node">
<title>16</title>
<path fill="none" stroke="#56d873" stroke-width="2" d="M175,-468C175,-468 115,-468 115,-468 109,-468 103,-462 103,-456 103,-456 103,-444 103,-444 103,-438 109,-432 115,-432 115,-432 175,-432 175,-432 181,-432 187,-438 187,-444 187,-444 187,-456 187,-456 187,-462 181,-468 175,-468"/>
<text text-anchor="middle" x="145" y="-447.5" font-family="sans" font-size="10.00">check_pairing</text>
</g>
<!-- 10&#45;&gt;16 -->
<g id="edge24" class="edge">
<title>10&#45;&gt;16</title>
<path fill="none" stroke="grey" stroke-width="2" d="M184.15,-503.7C177.97,-495.39 170.46,-485.28 163.68,-476.14"/>
<polygon fill="grey" stroke="grey" stroke-width="2" points="166.48,-474.04 157.71,-468.1 160.86,-478.22 166.48,-474.04"/>
</g>
<!-- 11 -->
<g id="node11" class="node">
<title>11</title>
<path fill="none" stroke="#5673d8" stroke-width="2" d="M160,-396C160,-396 130,-396 130,-396 124,-396 118,-390 118,-384 118,-384 118,-372 118,-372 118,-366 124,-360 130,-360 130,-360 160,-360 160,-360 166,-360 172,-366 172,-372 172,-372 172,-384 172,-384 172,-390 166,-396 160,-396"/>
<text text-anchor="middle" x="145" y="-375.5" font-family="sans" font-size="10.00">trim</text>
</g>
<!-- 11&#45;&gt;5 -->
<g id="edge9" class="edge">
<title>11&#45;&gt;5</title>
<path fill="none" stroke="grey" stroke-width="2" d="M165.27,-359.7C175.5,-350.97 188.06,-340.24 199.18,-330.75"/>
<polygon fill="grey" stroke="grey" stroke-width="2" points="201.63,-333.26 206.96,-324.1 197.09,-327.94 201.63,-333.26"/>
</g>
<!-- 11&#45;&gt;6 -->
<g id="edge10" class="edge">
<title>11&#45;&gt;6</title>
<path fill="none" stroke="grey" stroke-width="2" d="M150.16,-359.91C156.81,-340.36 170.09,-308.41 191,-288 211.29,-268.2 240.42,-254.56 263.46,-246.08"/>
<polygon fill="grey" stroke="grey" stroke-width="2" points="264.65,-249.37 272.92,-242.76 262.33,-242.77 264.65,-249.37"/>
</g>
<!-- 11&#45;&gt;7 -->
<g id="edge14" class="edge">
<title>11&#45;&gt;7</title>
<path fill="none" stroke="grey" stroke-width="2" d="M140.18,-359.87C133.33,-335.56 120.72,-290.82 112.61,-262.01"/>
<polygon fill="grey" stroke="grey" stroke-width="2" points="115.92,-260.87 109.84,-252.19 109.18,-262.76 115.92,-260.87"/>
</g>
<!-- 14 -->
<g id="node14" class="node">
<title>14</title>
<path fill="none" stroke="#56c1d8" stroke-width="2" d="M93.5,-324C93.5,-324 30.5,-324 30.5,-324 24.5,-324 18.5,-318 18.5,-312 18.5,-312 18.5,-300 18.5,-300 18.5,-294 24.5,-288 30.5,-288 30.5,-288 93.5,-288 93.5,-288 99.5,-288 105.5,-294 105.5,-300 105.5,-300 105.5,-312 105.5,-312 105.5,-318 99.5,-324 93.5,-324"/>
<text text-anchor="middle" x="62" y="-303.5" font-family="sans" font-size="10.00">star_first_pass</text>
</g>
<!-- 11&#45;&gt;14 -->
<g id="edge22" class="edge">
<title>11&#45;&gt;14</title>
<path fill="none" stroke="grey" stroke-width="2" d="M124.48,-359.7C114.13,-350.97 101.41,-340.24 90.16,-330.75"/>
<polygon fill="grey" stroke="grey" stroke-width="2" points="92.18,-327.88 82.28,-324.1 87.67,-333.23 92.18,-327.88"/>
</g>
<!-- 12 -->
<g id="node12" class="node">
<title>12</title>
<path fill="none" stroke="#88d856" stroke-width="2" d="M352,-324C352,-324 284,-324 284,-324 278,-324 272,-318 272,-312 272,-312 272,-300 272,-300 272,-294 278,-288 284,-288 284,-288 352,-288 352,-288 358,-288 364,-294 364,-300 364,-300 364,-312 364,-312 364,-318 358,-324 352,-324"/>
<text text-anchor="middle" x="318" y="-303.5" font-family="sans" font-size="10.00">generate_index</text>
</g>
<!-- 12&#45;&gt;6 -->
<g id="edge11" class="edge">
<title>12&#45;&gt;6</title>
<path fill="none" stroke="grey" stroke-width="2" d="M313.55,-287.7C311.55,-279.9 309.13,-270.51 306.9,-261.83"/>
<polygon fill="grey" stroke="grey" stroke-width="2" points="310.28,-260.92 304.4,-252.1 303.5,-262.66 310.28,-260.92"/>
</g>
<!-- 13 -->
<g id="node13" class="node">
<title>13</title>
<path fill="none" stroke="#56d8a2" stroke-width="2" d="M56,-396C56,-396 12,-396 12,-396 6,-396 0,-390 0,-384 0,-384 0,-372 0,-372 0,-366 6,-360 12,-360 12,-360 56,-360 56,-360 62,-360 68,-366 68,-372 68,-372 68,-384 68,-384 68,-390 62,-396 56,-396"/>
<text text-anchor="middle" x="34" y="-375.5" font-family="sans" font-size="10.00">star_index</text>
</g>
<!-- 13&#45;&gt;7 -->
<g id="edge12" class="edge">
<title>13&#45;&gt;7</title>
<path fill="none" stroke="grey" stroke-width="2" d="M21.67,-359.9C9.82,-341.19 -4.46,-310.81 9,-288 17.1,-274.28 30.16,-263.87 44.07,-256.07"/>
<polygon fill="grey" stroke="grey" stroke-width="2" points="46.01,-259 53.29,-251.31 42.8,-252.78 46.01,-259"/>
</g>
<!-- 13&#45;&gt;14 -->
<g id="edge21" class="edge">
<title>13&#45;&gt;14</title>
<path fill="none" stroke="grey" stroke-width="2" d="M40.92,-359.7C44.07,-351.81 47.88,-342.3 51.38,-333.55"/>
<polygon fill="grey" stroke="grey" stroke-width="2" points="54.69,-334.69 55.16,-324.1 48.19,-332.09 54.69,-334.69"/>
</g>
<!-- 14&#45;&gt;7 -->
<g id="edge13" class="edge">
<title>14&#45;&gt;7</title>
<path fill="none" stroke="grey" stroke-width="2" d="M72.63,-287.7C77.63,-279.56 83.69,-269.69 89.21,-260.7"/>
<polygon fill="grey" stroke="grey" stroke-width="2" points="92.24,-262.46 94.49,-252.1 86.28,-258.79 92.24,-262.46"/>
</g>
<!-- 15 -->
<g id="node15" class="node">
<title>15</title>
<path fill="none" stroke="#568ad8" stroke-width="2" d="M403,-468C403,-468 373,-468 373,-468 367,-468 361,-462 361,-456 361,-456 361,-444 361,-444 361,-438 367,-432 373,-432 373,-432 403,-432 403,-432 409,-432 415,-438 415,-444 415,-444 415,-456 415,-456 415,-462 409,-468 403,-468"/>
<text text-anchor="middle" x="388" y="-447.5" font-family="sans" font-size="10.00">gffread</text>
</g>
<!-- 15&#45;&gt;8 -->
<g id="edge16" class="edge">
<title>15&#45;&gt;8</title>
<path fill="none" stroke="grey" stroke-width="2" d="M403.18,-431.7C410.73,-421.94 419.07,-409.1 423,-396 427.6,-380.68 425.54,-375.8 423,-360 412.89,-297.11 385.72,-227.08 369.89,-189.8"/>
<polygon fill="grey" stroke="grey" stroke-width="2" points="372.92,-187.99 365.75,-180.19 366.5,-190.76 372.92,-187.99"/>
</g>
<!-- 17 -->
<g id="node17" class="node">
<title>17</title>
<path fill="none" stroke="#56a2d8" stroke-width="2" d="M402.5,-396C402.5,-396 313.5,-396 313.5,-396 307.5,-396 301.5,-390 301.5,-384 301.5,-384 301.5,-372 301.5,-372 301.5,-366 307.5,-360 313.5,-360 313.5,-360 402.5,-360 402.5,-360 408.5,-360 414.5,-366 414.5,-372 414.5,-372 414.5,-384 414.5,-384 414.5,-390 408.5,-396 402.5,-396"/>
<text text-anchor="middle" x="358" y="-375.5" font-family="sans" font-size="10.00">generate_gentrome</text>
</g>
<!-- 15&#45;&gt;17 -->
<g id="edge25" class="edge">
<title>15&#45;&gt;17</title>
<path fill="none" stroke="grey" stroke-width="2" d="M380.58,-431.7C377.21,-423.81 373.13,-414.3 369.38,-405.55"/>
<polygon fill="grey" stroke="grey" stroke-width="2" points="372.49,-403.92 365.33,-396.1 366.05,-406.67 372.49,-403.92"/>
</g>
<!-- 16&#45;&gt;11 -->
<g id="edge18" class="edge">
<title>16&#45;&gt;11</title>
<path fill="none" stroke="grey" stroke-width="2" d="M145,-431.7C145,-423.98 145,-414.71 145,-406.11"/>
<polygon fill="grey" stroke="grey" stroke-width="2" points="148.5,-406.1 145,-396.1 141.5,-406.1 148.5,-406.1"/>
</g>
<!-- 17&#45;&gt;12 -->
<g id="edge19" class="edge">
<title>17&#45;&gt;12</title>
<path fill="none" stroke="grey" stroke-width="2" d="M348.11,-359.7C343.51,-351.64 337.94,-341.89 332.85,-332.98"/>
<polygon fill="grey" stroke="grey" stroke-width="2" points="335.77,-331.05 327.77,-324.1 329.7,-334.52 335.77,-331.05"/>
</g>
<!-- 18 -->
<g id="node18" class="node">
<title>18</title>
<path fill="none" stroke="#d88d56" stroke-width="2" d="M331,-468C331,-468 255,-468 255,-468 249,-468 243,-462 243,-456 243,-456 243,-444 243,-444 243,-438 249,-432 255,-432 255,-432 331,-432 331,-432 337,-432 343,-438 343,-444 343,-444 343,-456 343,-456 343,-462 337,-468 331,-468"/>
<text text-anchor="middle" x="293" y="-447.5" font-family="sans" font-size="10.00">generate_decoys</text>
</g>
<!-- 18&#45;&gt;12 -->
<g id="edge20" class="edge">
<title>18&#45;&gt;12</title>
<path fill="none" stroke="grey" stroke-width="2" d="M290.41,-431.68C288.24,-413.55 286.34,-384.38 292,-360 294.1,-350.96 297.97,-341.68 302.09,-333.47"/>
<polygon fill="grey" stroke="grey" stroke-width="2" points="305.31,-334.86 306.95,-324.39 299.14,-331.55 305.31,-334.86"/>
</g>
<!-- 19 -->
<g id="node19" class="node">
<title>19</title>
<path fill="none" stroke="#d8bc56" stroke-width="2" d="M325,-540C325,-540 295,-540 295,-540 289,-540 283,-534 283,-528 283,-528 283,-516 283,-516 283,-510 289,-504 295,-504 295,-504 325,-504 325,-504 331,-504 337,-510 337,-516 337,-516 337,-528 337,-528 337,-534 331,-540 325,-540"/>
<text text-anchor="middle" x="310" y="-519.5" font-family="sans" font-size="10.00">faidx</text>
</g>
<!-- 19&#45;&gt;15 -->
<g id="edge23" class="edge">
<title>19&#45;&gt;15</title>
<path fill="none" stroke="grey" stroke-width="2" d="M329.28,-503.7C338.92,-495.05 350.73,-484.45 361.23,-475.03"/>
<polygon fill="grey" stroke="grey" stroke-width="2" points="363.84,-477.39 368.94,-468.1 359.16,-472.18 363.84,-477.39"/>
</g>
<!-- 19&#45;&gt;18 -->
<g id="edge26" class="edge">
<title>19&#45;&gt;18</title>
<path fill="none" stroke="grey" stroke-width="2" d="M305.8,-503.7C303.9,-495.9 301.62,-486.51 299.52,-477.83"/>
<polygon fill="grey" stroke="grey" stroke-width="2" points="302.92,-477 297.15,-468.1 296.11,-478.65 302.92,-477"/>
</g>
</g>
</svg>
