<?xml version="1.0" encoding="UTF-8" standalone="no"?>
<!DOCTYPE svg PUBLIC "-//W3C//DTD SVG 1.1//EN"
 "http://www.w3.org/Graphics/SVG/1.1/DTD/svg11.dtd">
<!-- Generated by graphviz version 2.43.0 (0)
 -->
<!-- Title: snakemake_dag Pages: 1 -->
<svg width="579pt" height="548pt"
 viewBox="0.00 0.00 579.00 548.00" xmlns="http://www.w3.org/2000/svg" xmlns:xlink="http://www.w3.org/1999/xlink">
<g id="graph0" class="graph" transform="scale(1 1) rotate(0) translate(4 544)">
<title>snakemake_dag</title>
<polygon fill="white" stroke="transparent" points="-4,4 -4,-544 575,-544 575,4 -4,4"/>
<!-- 1 -->
<g id="node1" class="node">
<title>1</title>
<path fill="none" stroke="#56d892" stroke-width="2" d="M429,-36C429,-36 388,-36 388,-36 382,-36 376,-30 376,-24 376,-24 376,-12 376,-12 376,-6 382,0 388,0 388,0 429,0 429,0 435,0 441,-6 441,-12 441,-12 441,-24 441,-24 441,-30 435,-36 429,-36"/>
<text text-anchor="middle" x="408.5" y="-15.5" font-family="sans" font-size="10.00">annot_res</text>
</g>
<!-- 2 -->
<g id="node2" class="node">
<title>2</title>
<path fill="none" stroke="#78d856" stroke-width="2" d="M369.5,-180C369.5,-180 339.5,-180 339.5,-180 333.5,-180 327.5,-174 327.5,-168 327.5,-168 327.5,-156 327.5,-156 327.5,-150 333.5,-144 339.5,-144 339.5,-144 369.5,-144 369.5,-144 375.5,-144 381.5,-150 381.5,-156 381.5,-156 381.5,-168 381.5,-168 381.5,-174 375.5,-180 369.5,-180"/>
<text text-anchor="middle" x="354.5" y="-159.5" font-family="sans" font-size="10.00">multiqc</text>
</g>
<!-- 3 -->
<g id="node3" class="node">
<title>3</title>
<path fill="none" stroke="#5673d8" stroke-width="2" d="M125,-180C125,-180 12,-180 12,-180 6,-180 0,-174 0,-168 0,-168 0,-156 0,-156 0,-150 6,-144 12,-144 12,-144 125,-144 125,-144 131,-144 137,-150 137,-156 137,-156 137,-168 137,-168 137,-174 131,-180 125,-180"/>
<text text-anchor="middle" x="68.5" y="-159.5" font-family="sans" font-size="10.00">count_reads_per_feature</text>
</g>
<!-- 4 -->
<g id="node4" class="node">
<title>4</title>
<path fill="none" stroke="#56a2d8" stroke-width="2" d="M375,-108C375,-108 342,-108 342,-108 336,-108 330,-102 330,-96 330,-96 330,-84 330,-84 330,-78 336,-72 342,-72 342,-72 375,-72 375,-72 381,-72 387,-78 387,-84 387,-84 387,-96 387,-96 387,-102 381,-108 375,-108"/>
<text text-anchor="middle" x="358.5" y="-87.5" font-family="sans" font-size="10.00">de_wald</text>
</g>
<!-- 4&#45;&gt;1 -->
<g id="edge2" class="edge">
<title>4&#45;&gt;1</title>
<path fill="none" stroke="grey" stroke-width="2" d="M370.86,-71.7C376.73,-63.47 383.87,-53.48 390.34,-44.42"/>
<polygon fill="grey" stroke="grey" stroke-width="2" points="393.32,-46.28 396.28,-36.1 387.62,-42.21 393.32,-46.28"/>
</g>
<!-- 5 -->
<g id="node5" class="node">
<title>5</title>
<path fill="none" stroke="#afd856" stroke-width="2" d="M500,-108C500,-108 417,-108 417,-108 411,-108 405,-102 405,-96 405,-96 405,-84 405,-84 405,-78 411,-72 417,-72 417,-72 500,-72 500,-72 506,-72 512,-78 512,-84 512,-84 512,-96 512,-96 512,-102 506,-108 500,-108"/>
<text text-anchor="middle" x="458.5" y="-87.5" font-family="sans" font-size="10.00">parse_annotations</text>
</g>
<!-- 5&#45;&gt;1 -->
<g id="edge1" class="edge">
<title>5&#45;&gt;1</title>
<path fill="none" stroke="grey" stroke-width="2" d="M446.14,-71.7C440.27,-63.47 433.13,-53.48 426.66,-44.42"/>
<polygon fill="grey" stroke="grey" stroke-width="2" points="429.38,-42.21 420.72,-36.1 423.68,-46.28 429.38,-42.21"/>
</g>
<!-- 6 -->
<g id="node6" class="node">
<title>6</title>
<path fill="none" stroke="#c6d856" stroke-width="2" d="M356.5,-252C356.5,-252 326.5,-252 326.5,-252 320.5,-252 314.5,-246 314.5,-240 314.5,-240 314.5,-228 314.5,-228 314.5,-222 320.5,-216 326.5,-216 326.5,-216 356.5,-216 356.5,-216 362.5,-216 368.5,-222 368.5,-228 368.5,-228 368.5,-240 368.5,-240 368.5,-246 362.5,-252 356.5,-252"/>
<text text-anchor="middle" x="341.5" y="-231.5" font-family="sans" font-size="10.00">fastqc</text>
</g>
<!-- 6&#45;&gt;2 -->
<g id="edge3" class="edge">
<title>6&#45;&gt;2</title>
<path fill="none" stroke="grey" stroke-width="2" d="M344.71,-215.7C346.15,-207.98 347.87,-198.71 349.46,-190.11"/>
<polygon fill="grey" stroke="grey" stroke-width="2" points="352.94,-190.58 351.32,-180.1 346.06,-189.3 352.94,-190.58"/>
</g>
<!-- 7 -->
<g id="node7" class="node">
<title>7</title>
<path fill="none" stroke="#d8bc56" stroke-width="2" d="M428.5,-252C428.5,-252 398.5,-252 398.5,-252 392.5,-252 386.5,-246 386.5,-240 386.5,-240 386.5,-228 386.5,-228 386.5,-222 392.5,-216 398.5,-216 398.5,-216 428.5,-216 428.5,-216 434.5,-216 440.5,-222 440.5,-228 440.5,-228 440.5,-240 440.5,-240 440.5,-246 434.5,-252 428.5,-252"/>
<text text-anchor="middle" x="413.5" y="-231.5" font-family="sans" font-size="10.00">salmon</text>
</g>
<!-- 7&#45;&gt;2 -->
<g id="edge4" class="edge">
<title>7&#45;&gt;2</title>
<path fill="none" stroke="grey" stroke-width="2" d="M398.92,-215.7C391.84,-207.3 383.22,-197.07 375.45,-187.86"/>
<polygon fill="grey" stroke="grey" stroke-width="2" points="378.04,-185.49 368.92,-180.1 372.69,-190.01 378.04,-185.49"/>
</g>
<!-- 9 -->
<g id="node9" class="node">
<title>9</title>
<path fill="none" stroke="#56d8a9" stroke-width="2" d="M559,-180C559,-180 412,-180 412,-180 406,-180 400,-174 400,-168 400,-168 400,-156 400,-156 400,-150 406,-144 412,-144 412,-144 559,-144 559,-144 565,-144 571,-150 571,-156 571,-156 571,-168 571,-168 571,-174 565,-180 559,-180"/>
<text text-anchor="middle" x="485.5" y="-159.5" font-family="sans" font-size="10.00">generate_deseq_object_salmon</text>
</g>
<!-- 7&#45;&gt;9 -->
<g id="edge13" class="edge">
<title>7&#45;&gt;9</title>
<path fill="none" stroke="grey" stroke-width="2" d="M431.3,-215.7C440.1,-207.14 450.88,-196.66 460.5,-187.3"/>
<polygon fill="grey" stroke="grey" stroke-width="2" points="463.18,-189.58 467.91,-180.1 458.3,-184.57 463.18,-189.58"/>
</g>
<!-- 8 -->
<g id="node8" class="node">
<title>8</title>
<path fill="none" stroke="#568ad8" stroke-width="2" d="M272,-252C272,-252 193,-252 193,-252 187,-252 181,-246 181,-240 181,-240 181,-228 181,-228 181,-222 187,-216 193,-216 193,-216 272,-216 272,-216 278,-216 284,-222 284,-228 284,-228 284,-240 284,-240 284,-246 278,-252 272,-252"/>
<text text-anchor="middle" x="232.5" y="-231.5" font-family="sans" font-size="10.00">star_second_pass</text>
</g>
<!-- 8&#45;&gt;2 -->
<g id="edge5" class="edge">
<title>8&#45;&gt;2</title>
<path fill="none" stroke="grey" stroke-width="2" d="M262.34,-215.88C279.28,-206.16 300.61,-193.92 318.47,-183.67"/>
<polygon fill="grey" stroke="grey" stroke-width="2" points="320.53,-186.53 327.46,-178.51 317.05,-180.46 320.53,-186.53"/>
</g>
<!-- 8&#45;&gt;3 -->
<g id="edge6" class="edge">
<title>8&#45;&gt;3</title>
<path fill="none" stroke="grey" stroke-width="2" d="M192.38,-215.88C169.86,-206.26 141.58,-194.19 117.73,-184.01"/>
<polygon fill="grey" stroke="grey" stroke-width="2" points="119.06,-180.77 108.49,-180.07 116.31,-187.21 119.06,-180.77"/>
</g>
<!-- 10 -->
<g id="node10" class="node">
<title>10</title>
<path fill="none" stroke="#d8a456" stroke-width="2" d="M297.5,-180C297.5,-180 167.5,-180 167.5,-180 161.5,-180 155.5,-174 155.5,-168 155.5,-168 155.5,-156 155.5,-156 155.5,-150 161.5,-144 167.5,-144 167.5,-144 297.5,-144 297.5,-144 303.5,-144 309.5,-150 309.5,-156 309.5,-156 309.5,-168 309.5,-168 309.5,-174 303.5,-180 297.5,-180"/>
<text text-anchor="middle" x="232.5" y="-159.5" font-family="sans" font-size="10.00">generate_deseq_object_star</text>
</g>
<!-- 8&#45;&gt;10 -->
<g id="edge14" class="edge">
<title>8&#45;&gt;10</title>
<path fill="none" stroke="grey" stroke-width="2" d="M232.5,-215.7C232.5,-207.98 232.5,-198.71 232.5,-190.11"/>
<polygon fill="grey" stroke="grey" stroke-width="2" points="236,-190.1 232.5,-180.1 229,-190.1 236,-190.1"/>
</g>
<!-- 9&#45;&gt;4 -->
<g id="edge8" class="edge">
<title>9&#45;&gt;4</title>
<path fill="none" stroke="grey" stroke-width="2" d="M454.43,-143.88C436.76,-134.14 414.51,-121.87 395.89,-111.61"/>
<polygon fill="grey" stroke="grey" stroke-width="2" points="397.52,-108.51 387.08,-106.75 394.14,-114.64 397.52,-108.51"/>
</g>
<!-- 10&#45;&gt;4 -->
<g id="edge7" class="edge">
<title>10&#45;&gt;4</title>
<path fill="none" stroke="grey" stroke-width="2" d="M263.32,-143.88C280.65,-134.25 302.41,-122.16 320.76,-111.97"/>
<polygon fill="grey" stroke="grey" stroke-width="2" points="322.68,-114.9 329.72,-106.99 319.28,-108.78 322.68,-114.9"/>
</g>
<!-- 11 -->
<g id="node11" class="node">
<title>11</title>
<path fill="none" stroke="#d86e56" stroke-width="2" d="M440.5,-324C440.5,-324 372.5,-324 372.5,-324 366.5,-324 360.5,-318 360.5,-312 360.5,-312 360.5,-300 360.5,-300 360.5,-294 366.5,-288 372.5,-288 372.5,-288 440.5,-288 440.5,-288 446.5,-288 452.5,-294 452.5,-300 452.5,-300 452.5,-312 452.5,-312 452.5,-318 446.5,-324 440.5,-324"/>
<text text-anchor="middle" x="406.5" y="-303.5" font-family="sans" font-size="10.00">generate_index</text>
</g>
<!-- 11&#45;&gt;7 -->
<g id="edge9" class="edge">
<title>11&#45;&gt;7</title>
<path fill="none" stroke="grey" stroke-width="2" d="M408.23,-287.7C409,-279.98 409.93,-270.71 410.79,-262.11"/>
<polygon fill="grey" stroke="grey" stroke-width="2" points="414.28,-262.4 411.79,-252.1 407.31,-261.71 414.28,-262.4"/>
</g>
<!-- 12 -->
<g id="node12" class="node">
<title>12</title>
<path fill="none" stroke="#d8d356" stroke-width="2" d="M265.5,-396C265.5,-396 221.5,-396 221.5,-396 215.5,-396 209.5,-390 209.5,-384 209.5,-384 209.5,-372 209.5,-372 209.5,-366 215.5,-360 221.5,-360 221.5,-360 265.5,-360 265.5,-360 271.5,-360 277.5,-366 277.5,-372 277.5,-372 277.5,-384 277.5,-384 277.5,-390 271.5,-396 265.5,-396"/>
<text text-anchor="middle" x="243.5" y="-375.5" font-family="sans" font-size="10.00">star_index</text>
</g>
<!-- 12&#45;&gt;8 -->
<g id="edge11" class="edge">
<title>12&#45;&gt;8</title>
<path fill="none" stroke="grey" stroke-width="2" d="M232.87,-359.56C227.4,-349.54 221.3,-336.51 218.5,-324 213.87,-303.33 218.06,-279.62 223.03,-261.88"/>
<polygon fill="grey" stroke="grey" stroke-width="2" points="226.41,-262.77 225.98,-252.19 219.72,-260.73 226.41,-262.77"/>
</g>
<!-- 13 -->
<g id="node13" class="node">
<title>13</title>
<path fill="none" stroke="#97d856" stroke-width="2" d="M303,-324C303,-324 240,-324 240,-324 234,-324 228,-318 228,-312 228,-312 228,-300 228,-300 228,-294 234,-288 240,-288 240,-288 303,-288 303,-288 309,-288 315,-294 315,-300 315,-300 315,-312 315,-312 315,-318 309,-324 303,-324"/>
<text text-anchor="middle" x="271.5" y="-303.5" font-family="sans" font-size="10.00">star_first_pass</text>
</g>
<!-- 12&#45;&gt;13 -->
<g id="edge17" class="edge">
<title>12&#45;&gt;13</title>
<path fill="none" stroke="grey" stroke-width="2" d="M250.42,-359.7C253.57,-351.81 257.38,-342.3 260.88,-333.55"/>
<polygon fill="grey" stroke="grey" stroke-width="2" points="264.19,-334.69 264.66,-324.1 257.69,-332.09 264.19,-334.69"/>
</g>
<!-- 13&#45;&gt;8 -->
<g id="edge10" class="edge">
<title>13&#45;&gt;8</title>
<path fill="none" stroke="grey" stroke-width="2" d="M261.86,-287.7C257.37,-279.64 251.94,-269.89 246.98,-260.98"/>
<polygon fill="grey" stroke="grey" stroke-width="2" points="249.95,-259.14 242.03,-252.1 243.84,-262.54 249.95,-259.14"/>
</g>
<!-- 14 -->
<g id="node14" class="node">
<title>14</title>
<path fill="none" stroke="#56d87b" stroke-width="2" d="M431.5,-468C431.5,-468 401.5,-468 401.5,-468 395.5,-468 389.5,-462 389.5,-456 389.5,-456 389.5,-444 389.5,-444 389.5,-438 395.5,-432 401.5,-432 401.5,-432 431.5,-432 431.5,-432 437.5,-432 443.5,-438 443.5,-444 443.5,-444 443.5,-456 443.5,-456 443.5,-462 437.5,-468 431.5,-468"/>
<text text-anchor="middle" x="416.5" y="-447.5" font-family="sans" font-size="10.00">gffread</text>
</g>
<!-- 14&#45;&gt;9 -->
<g id="edge12" class="edge">
<title>14&#45;&gt;9</title>
<path fill="none" stroke="grey" stroke-width="2" d="M441.98,-431.89C453.44,-422.71 465.85,-410.33 472.5,-396 504.3,-327.44 496.66,-235.08 490.17,-190.01"/>
<polygon fill="grey" stroke="grey" stroke-width="2" points="493.63,-189.47 488.65,-180.11 486.71,-190.53 493.63,-189.47"/>
</g>
<!-- 15 -->
<g id="node15" class="node">
<title>15</title>
<path fill="none" stroke="#56d863" stroke-width="2" d="M451,-396C451,-396 362,-396 362,-396 356,-396 350,-390 350,-384 350,-384 350,-372 350,-372 350,-366 356,-360 362,-360 362,-360 451,-360 451,-360 457,-360 463,-366 463,-372 463,-372 463,-384 463,-384 463,-390 457,-396 451,-396"/>
<text text-anchor="middle" x="406.5" y="-375.5" font-family="sans" font-size="10.00">generate_gentrome</text>
</g>
<!-- 14&#45;&gt;15 -->
<g id="edge19" class="edge">
<title>14&#45;&gt;15</title>
<path fill="none" stroke="grey" stroke-width="2" d="M414.03,-431.7C412.93,-423.98 411.6,-414.71 410.37,-406.11"/>
<polygon fill="grey" stroke="grey" stroke-width="2" points="413.82,-405.51 408.94,-396.1 406.89,-406.5 413.82,-405.51"/>
</g>
<!-- 15&#45;&gt;11 -->
<g id="edge15" class="edge">
<title>15&#45;&gt;11</title>
<path fill="none" stroke="grey" stroke-width="2" d="M406.5,-359.7C406.5,-351.98 406.5,-342.71 406.5,-334.11"/>
<polygon fill="grey" stroke="grey" stroke-width="2" points="410,-334.1 406.5,-324.1 403,-334.1 410,-334.1"/>
</g>
<!-- 16 -->
<g id="node16" class="node">
<title>16</title>
<path fill="none" stroke="#56d8c9" stroke-width="2" d="M359.5,-468C359.5,-468 283.5,-468 283.5,-468 277.5,-468 271.5,-462 271.5,-456 271.5,-456 271.5,-444 271.5,-444 271.5,-438 277.5,-432 283.5,-432 283.5,-432 359.5,-432 359.5,-432 365.5,-432 371.5,-438 371.5,-444 371.5,-444 371.5,-456 371.5,-456 371.5,-462 365.5,-468 359.5,-468"/>
<text text-anchor="middle" x="321.5" y="-447.5" font-family="sans" font-size="10.00">generate_decoys</text>
</g>
<!-- 16&#45;&gt;11 -->
<g id="edge16" class="edge">
<title>16&#45;&gt;11</title>
<path fill="none" stroke="grey" stroke-width="2" d="M322.07,-431.68C323.42,-412.77 327.76,-382.22 341.5,-360 348.57,-348.57 359,-338.49 369.43,-330.27"/>
<polygon fill="grey" stroke="grey" stroke-width="2" points="371.81,-332.87 377.75,-324.09 367.63,-327.25 371.81,-332.87"/>
</g>
<!-- 17 -->
<g id="node17" class="node">
<title>17</title>
<path fill="none" stroke="#d88556" stroke-width="2" d="M383.5,-540C383.5,-540 353.5,-540 353.5,-540 347.5,-540 341.5,-534 341.5,-528 341.5,-528 341.5,-516 341.5,-516 341.5,-510 347.5,-504 353.5,-504 353.5,-504 383.5,-504 383.5,-504 389.5,-504 395.5,-510 395.5,-516 395.5,-516 395.5,-528 395.5,-528 395.5,-534 389.5,-540 383.5,-540"/>
<text text-anchor="middle" x="368.5" y="-519.5" font-family="sans" font-size="10.00">faidx</text>
</g>
<!-- 17&#45;&gt;14 -->
<g id="edge18" class="edge">
<title>17&#45;&gt;14</title>
<path fill="none" stroke="grey" stroke-width="2" d="M380.37,-503.7C386,-495.47 392.85,-485.48 399.07,-476.42"/>
<polygon fill="grey" stroke="grey" stroke-width="2" points="402,-478.33 404.77,-468.1 396.23,-474.37 402,-478.33"/>
</g>
<!-- 17&#45;&gt;16 -->
<g id="edge20" class="edge">
<title>17&#45;&gt;16</title>
<path fill="none" stroke="grey" stroke-width="2" d="M356.88,-503.7C351.36,-495.47 344.65,-485.48 338.57,-476.42"/>
<polygon fill="grey" stroke="grey" stroke-width="2" points="341.46,-474.46 332.98,-468.1 335.65,-478.36 341.46,-474.46"/>
</g>
</g>
</svg>
